<svg id="1911c645-813e-4bda-9126-f373bd8d3ebe" data-name="Fahrstuhl" xmlns="http://www.w3.org/2000/svg" width="2.51cm" height="3.62cm" viewBox="0 0 71.01 102.63"><defs><style>.\31 795d896-bc49-4e89-94a1-590e15a6dde1{fill:#888c91;}.\37 d158b5c-9005-4542-b9b1-1e6539df0910{opacity:0.5;}.ee26ffb7-8fec-43ee-b734-af2157b169b2{fill:#f5db34;}.\38 f5f054f-031d-425b-8a2c-75e843716e3c{fill:#d4d4c0;}.\37 402b9de-6cf8-406b-aa46-ff3c268f68fe{fill:#fff;opacity:0.15;}</style></defs><title>Raum Fahrstuhl blanko_2</title><polygon class="1795d896-bc49-4e89-94a1-590e15a6dde1" points="4.12 0 65.97 0 71.01 102.63 0 102.63 4.12 0"/><circle class="7d158b5c-9005-4542-b9b1-1e6539df0910" cx="34.36" cy="29.78" r="16.72"/><circle class="ee26ffb7-8fec-43ee-b734-af2157b169b2" cx="35.96" cy="26.57" r="16.72"/><path d="M400.41,345.83a11.78,11.78,0,1,1,11.78-11.78A11.78,11.78,0,0,1,400.41,345.83Zm7.64-12.48-5.55-5.55-1.4-1.4a1,1,0,0,0-1.38,0l-1.4,1.4-5.55,5.55a1,1,0,0,0,0,1.38l1.4,1.4a1,1,0,0,0,1.38,0l2.9-2.9v7.7a1,1,0,0,0,1,1h2a1,1,0,0,0,1-1v-7.7l2.9,2.9a1,1,0,0,0,1.38,0l1.4-1.4A1,1,0,0,0,408.05,333.35Z" transform="translate(-364.34 -307.16)"/><circle class="7d158b5c-9005-4542-b9b1-1e6539df0910" cx="35.28" cy="75.9" r="16.72"/><circle class="8f5f054f-031d-425b-8a2c-75e843716e3c" cx="35.96" cy="73.61" r="16.72"/><path d="M400.19,369.29a11.78,11.78,0,1,1-11.78,11.78A11.78,11.78,0,0,1,400.19,369.29Zm-7.64,12.48,5.55,5.55,1.4,1.4a1,1,0,0,0,1.38,0l1.4-1.4,5.55-5.55a1,1,0,0,0,0-1.38l-1.4-1.4a1,1,0,0,0-1.38,0l-2.9,2.9v-7.7a1,1,0,0,0-1-1h-2a1,1,0,0,0-1,1v7.7l-2.9-2.9a1,1,0,0,0-1.38,0l-1.4,1.4A1,1,0,0,0,392.55,381.78Z" transform="translate(-364.34 -307.16)"/><path class="7402b9de-6cf8-406b-aa46-ff3c268f68fe" d="M367.23,332.36l-2.9,77.43h32.05C376.5,391.44,366.65,385.65,367.23,332.36Z" transform="translate(-364.34 -307.16)"/></svg>