<?xml version="1.0" encoding="utf-8"?>
<!-- Generator: Adobe Illustrator 23.0.1, SVG Export Plug-In . SVG Version: 6.00 Build 0)  -->
<svg version="1.1" id="Capa_1" xmlns="http://www.w3.org/2000/svg" xmlns:xlink="http://www.w3.org/1999/xlink" x="0px" y="0px"
	 viewBox="0 0 21.1 21.1" style="enable-background:new 0 0 21.1 21.1;" xml:space="preserve">
<style type="text/css">
	.st0{fill:#EDF5E1;}
</style>
<g>
	<path class="st0" d="M21.1,11.5c-0.2-0.6-0.6-1.3-1.3-1.5c-0.5-0.1-1-0.5-1.5-0.4c-0.4,0.1-0.6-0.1-0.7-0.4
		c-0.3-1.4-1.7-0.6-2.4-1.3C15.1,7.8,15,8.2,15,8.3c0.2,0.7-0.6,0.9-0.7,0.8c-0.4-0.3-1-0.7-1-1.2c0.2-0.4,0.4-0.6,0.2-0.7
		C12,6.7,10.6,5.9,9.1,5.7c-0.4-0.1-1,0.6-1.6-0.1C7.4,5.5,7,5.5,6.9,5.6C5.4,6.9,3.5,7.4,1.7,8C1.1,8.1,0.8,9,0.1,8.5
		c-0.2,0.8,0.3,1.1,0.8,1.4C1,10,1.1,10.2,1,10.4c-0.2,1,0.4,1.5,1,2c1.1,0.9,2.4,1.7,3.5,2.5c1.2,0.9,2.4,0.9,3.1-0.2
		c0.6-0.8,1.2-0.9,1.9-0.5c1.4,0.8,3.1,0.2,4.4,1.1c0.1,0,0.4-0.1,0.4-0.3c0.2-0.5,0.6-0.5,1.1-0.5c1,0.1,1.8-0.5,2.3-1.3
		c0.3-0.5,0.9-0.8,1.3-1.2C20.4,11.8,21.2,12.1,21.1,11.5z"/>
</g>
</svg>
