<svg width="151" height="98" viewBox="0 0 151 98" fill="none" xmlns="http://www.w3.org/2000/svg">
<path d="M93.6906 27.5247C86.0391 12.5057 70.447 2.21582 52.4322 2.21582C34.4174 2.21582 18.8252 12.5057 11.1738 27.5247H93.6906Z" stroke="#0066FF" stroke-width="3" stroke-miterlimit="10"/>
<path d="M18.8027 27.5244V16.6777" stroke="#0066FF" stroke-width="3" stroke-miterlimit="10"/>
<path d="M27.207 27.5251V9.44727" stroke="#0066FF" stroke-width="3" stroke-miterlimit="10"/>
<path d="M35.6172 27.5248V5.1084" stroke="#0066FF" stroke-width="3" stroke-miterlimit="10"/>
<path d="M44.0273 27.5253V2.93945" stroke="#0066FF" stroke-width="3" stroke-miterlimit="10"/>
<path d="M52.4316 27.5247V2.21582" stroke="#0066FF" stroke-width="3" stroke-miterlimit="10"/>
<path d="M60.8418 27.5253V2.93945" stroke="#0066FF" stroke-width="3" stroke-miterlimit="10"/>
<path d="M69.2461 27.5248V5.1084" stroke="#0066FF" stroke-width="3" stroke-miterlimit="10"/>
<path d="M77.6562 27.5251V9.44727" stroke="#0066FF" stroke-width="3" stroke-miterlimit="10"/>
<path d="M86.0605 27.5244V16.6777" stroke="#0066FF" stroke-width="3" stroke-miterlimit="10"/>
<path d="M0 27.5244H15.9103" stroke="#0066FF" stroke-width="3" stroke-miterlimit="10"/>
<path d="M88.9531 27.5244H104.863" stroke="#0066FF" stroke-width="3" stroke-miterlimit="10"/>
<path d="M26.0342 27.5244H11.5703V36.2018H26.0342V27.5244Z" fill="#0066FF" stroke="#0066FF" stroke-width="3" stroke-miterlimit="10"/>
<path d="M93.2926 27.5244H78.1055V36.2018H93.2926V27.5244Z" fill="#0066FF" stroke="#0066FF" stroke-width="3" stroke-miterlimit="10"/>
<path d="M93.6906 87.5433C86.0391 72.5242 70.447 62.2344 52.4322 62.2344C34.4174 62.2344 18.8252 72.5242 11.1738 87.5433H93.6906Z" stroke="#0066FF" stroke-width="3" stroke-miterlimit="10"/>
<path d="M18.8027 87.543V76.6963" stroke="#0066FF" stroke-width="3" stroke-miterlimit="10"/>
<path d="M27.207 87.5436V69.4658" stroke="#0066FF" stroke-width="3" stroke-miterlimit="10"/>
<path d="M35.6172 87.5435V65.127" stroke="#0066FF" stroke-width="3" stroke-miterlimit="10"/>
<path d="M44.0273 87.5428V62.957" stroke="#0066FF" stroke-width="3" stroke-miterlimit="10"/>
<path d="M52.4316 87.5433V62.2344" stroke="#0066FF" stroke-width="3" stroke-miterlimit="10"/>
<path d="M60.8418 87.5428V62.957" stroke="#0066FF" stroke-width="3" stroke-miterlimit="10"/>
<path d="M69.2461 87.5435V65.127" stroke="#0066FF" stroke-width="3" stroke-miterlimit="10"/>
<path d="M77.6562 87.5436V69.4658" stroke="#0066FF" stroke-width="3" stroke-miterlimit="10"/>
<path d="M86.0605 87.543V76.6963" stroke="#0066FF" stroke-width="3" stroke-miterlimit="10"/>
<path d="M0 87.543H15.9103" stroke="#0066FF" stroke-width="3" stroke-miterlimit="10"/>
<path d="M88.9531 87.543H104.863" stroke="#0066FF" stroke-width="3" stroke-miterlimit="10"/>
<path d="M26.0342 87.543H11.5703V96.2203H26.0342V87.543Z" fill="#0066FF" stroke="#0066FF" stroke-width="3" stroke-miterlimit="10"/>
<path d="M93.2926 87.543H78.1055V96.2203H93.2926V87.543Z" fill="#0066FF" stroke="#0066FF" stroke-width="3" stroke-miterlimit="10"/>
<path d="M132.178 10.3047H145.178C147.387 10.3047 149.178 12.0955 149.178 14.3047V75.3047C149.178 77.5138 147.387 79.3047 145.178 79.3047H132.178" stroke="black" stroke-width="3"/>
<path d="M138.678 70.8047L130.178 79.3047L138.678 87.8047" stroke="black" stroke-width="3"/>
</svg>
