<svg width="1832" height="371" viewBox="0 0 1832 371" fill="none" xmlns="http://www.w3.org/2000/svg">
<g clip-path="url(#clip0)">
<path d="M835.788 344.803L904.326 344.803L904.326 314.341L835.788 314.341L835.788 344.803Z" fill="#333333" stroke="black" stroke-width="11.4231" stroke-miterlimit="10" stroke-linejoin="round"/>
<path d="M904.326 356.264V302.957" stroke="black" stroke-width="11.4231" stroke-miterlimit="10" stroke-linejoin="round"/>
<path d="M74.2494 314.38H5.71094V344.841H74.2494V314.38Z" fill="#333333" stroke="black" stroke-width="11.4231" stroke-miterlimit="10" stroke-linejoin="round"/>
<path d="M879.119 270.629L836.739 203.195C826.306 187.888 808.981 178.711 790.438 178.711H460.311H454.523H124.396C105.853 178.711 88.5278 187.888 78.0947 203.195L35.7151 270.629C15.0394 303.49 38.6851 346.25 77.4855 346.25H129.118C130.07 356.911 139.056 365.288 149.946 365.288C160.836 365.288 169.822 356.911 170.774 346.25H178.58C179.532 356.911 188.518 365.288 199.408 365.288C210.298 365.288 219.284 356.911 220.236 346.25H454.409H460.197H694.37C695.322 356.911 704.308 365.288 715.198 365.288C726.126 365.288 735.074 356.911 736.026 346.25H743.832C744.784 356.911 753.77 365.288 764.66 365.288C775.588 365.288 784.536 356.911 785.488 346.25H837.12C876.149 346.25 899.795 303.49 879.119 270.629Z" fill="#585858" stroke="black" stroke-width="11.4231" stroke-miterlimit="10"/>
<path d="M71.4324 216.789H155.202V277.712H33.3555L71.4324 216.789Z" fill="#CCCCCC" stroke="black" stroke-width="11.4231" stroke-miterlimit="10" stroke-linejoin="round"/>
<path d="M595.903 178.711H458.826V346.25H595.903V178.711Z" fill="white" stroke="black" stroke-width="11.4231" stroke-miterlimit="10" stroke-linejoin="round"/>
<path d="M458.827 178.711H321.75V346.25H458.827V178.711Z" fill="white" stroke="black" stroke-width="11.4231" stroke-miterlimit="10" stroke-linejoin="round"/>
<path d="M202.804 277.711L291.295 277.711L291.295 216.788L202.804 216.788L202.804 277.711Z" fill="#CCCCCC" stroke="black" stroke-width="11.4231" stroke-miterlimit="10" stroke-linejoin="round"/>
<path d="M343.068 277.711L431.559 277.711L431.559 216.788L343.068 216.788L343.068 277.711Z" fill="#CCCCCC" stroke="black" stroke-width="11.4231" stroke-miterlimit="10" stroke-linejoin="round"/>
<path d="M843.404 216.789H759.635V277.712H881.481L843.404 216.789Z" fill="#CCCCCC" stroke="black" stroke-width="11.4231" stroke-miterlimit="10" stroke-linejoin="round"/>
<path d="M712.038 216.789H623.547V277.712H712.038V216.789Z" fill="#CCCCCC" stroke="black" stroke-width="11.4231" stroke-miterlimit="10" stroke-linejoin="round"/>
<path d="M571.801 216.789H483.311V277.712H571.801V216.789Z" fill="#CCCCCC" stroke="black" stroke-width="11.4231" stroke-miterlimit="10" stroke-linejoin="round"/>
<path d="M5.71094 356.264V302.957" stroke="black" stroke-width="11.4231" stroke-miterlimit="10" stroke-linejoin="round"/>
<path d="M1757.25 344.803L1825.79 344.803L1825.79 314.341L1757.25 314.341L1757.25 344.803Z" fill="#333333" stroke="black" stroke-width="11.4231" stroke-miterlimit="10" stroke-linejoin="round"/>
<path d="M1825.79 356.264V302.957" stroke="black" stroke-width="11.4231" stroke-miterlimit="10" stroke-linejoin="round"/>
<path d="M995.712 314.38H927.174V344.841H995.712V314.38Z" fill="#333333" stroke="black" stroke-width="11.4231" stroke-miterlimit="10" stroke-linejoin="round"/>
<path d="M1800.58 270.629L1758.2 203.195C1747.77 187.888 1730.44 178.711 1711.9 178.711H1381.77H1375.99H1045.86C1027.32 178.711 1009.99 187.888 999.557 203.195L957.177 270.629C936.502 303.49 960.147 346.25 998.986 346.25H1050.62C1051.57 356.911 1060.56 365.288 1071.45 365.288C1082.34 365.288 1091.32 356.911 1092.27 346.25H1100.08C1101.03 356.911 1110.02 365.288 1120.91 365.288C1131.8 365.288 1140.78 356.911 1141.74 346.25H1375.91H1381.7H1615.87C1616.82 356.911 1625.81 365.288 1636.7 365.288C1647.63 365.288 1656.57 356.911 1657.53 346.25H1665.33C1666.28 356.911 1675.27 365.288 1686.16 365.288C1697.09 365.288 1706.04 356.911 1706.99 346.25H1758.62C1797.61 346.25 1821.26 303.49 1800.58 270.629Z" fill="#585858" stroke="black" stroke-width="11.4231" stroke-miterlimit="10"/>
<path d="M992.893 216.789H1076.66V277.712H954.816L992.893 216.789Z" fill="#CCCCCC" stroke="black" stroke-width="11.4231" stroke-miterlimit="10" stroke-linejoin="round"/>
<path d="M1517.37 178.711H1380.29V346.25H1517.37V178.711Z" fill="white" stroke="black" stroke-width="11.4231" stroke-miterlimit="10" stroke-linejoin="round"/>
<path d="M1380.29 178.711H1243.21V346.25H1380.29V178.711Z" fill="white" stroke="black" stroke-width="11.4231" stroke-miterlimit="10" stroke-linejoin="round"/>
<path d="M1124.27 277.711L1212.76 277.711L1212.76 216.788L1124.27 216.788L1124.27 277.711Z" fill="#CCCCCC" stroke="black" stroke-width="11.4231" stroke-miterlimit="10" stroke-linejoin="round"/>
<path d="M1264.53 277.711L1353.02 277.711L1353.02 216.788L1264.53 216.788L1264.53 277.711Z" fill="#CCCCCC" stroke="black" stroke-width="11.4231" stroke-miterlimit="10" stroke-linejoin="round"/>
<path d="M1764.86 216.789H1681.1V277.712H1802.94L1764.86 216.789Z" fill="#CCCCCC" stroke="black" stroke-width="11.4231" stroke-miterlimit="10" stroke-linejoin="round"/>
<path d="M1633.5 216.789H1545.01V277.712H1633.5V216.789Z" fill="#CCCCCC" stroke="black" stroke-width="11.4231" stroke-miterlimit="10" stroke-linejoin="round"/>
<path d="M1493.26 216.789H1404.77V277.712H1493.26V216.789Z" fill="#CCCCCC" stroke="black" stroke-width="11.4231" stroke-miterlimit="10" stroke-linejoin="round"/>
<path d="M927.174 356.264V302.957" stroke="black" stroke-width="11.4231" stroke-miterlimit="10" stroke-linejoin="round"/>
</g>
<circle cx="150" cy="138" r="12" transform="rotate(90 150 138)" fill="#0066FF"/>
<path d="M150 121L150 53" stroke="#0066FF" stroke-width="4"/>
<circle cx="668" cy="138" r="12" transform="rotate(90 668 138)" fill="#0066FF"/>
<path d="M668 121L668 53" stroke="#0066FF" stroke-width="4"/>
<circle cx="1165" cy="138" r="12" transform="rotate(90 1165 138)" fill="#0066FF"/>
<path d="M1165 121L1165 53" stroke="#0066FF" stroke-width="4"/>
<line x1="148" y1="54" x2="1832" y2="54.0001" stroke="#0066FF" stroke-width="4"/>
<path d="M106.209 30V26.4212H112.185V9.96575L106.397 13.5788V9.79452L112.442 5.87329H116.997V26.4212H122.527V30H106.209ZM142.548 21.9692C142.548 24.5263 141.749 26.5639 140.151 28.0822C138.564 29.589 136.384 30.3425 133.61 30.3425C131.189 30.3425 129.249 29.8002 127.788 28.7158C126.338 27.6199 125.442 26.0388 125.099 23.9726L129.911 23.5788C130.162 24.6062 130.607 25.3539 131.247 25.8219C131.886 26.29 132.691 26.524 133.661 26.524C134.86 26.524 135.813 26.1416 136.521 25.3767C137.24 24.6119 137.599 23.5103 137.599 22.0719C137.599 20.8048 137.263 19.7945 136.589 19.0411C135.916 18.2763 134.974 17.8938 133.764 17.8938C132.428 17.8938 131.338 18.4132 130.493 19.4521H125.801L126.64 5.87329H141.144V9.45205H131.007L130.613 15.5479C131.777 14.5205 133.233 14.0068 134.979 14.0068C137.274 14.0068 139.106 14.7203 140.476 16.1473C141.857 17.5742 142.548 19.5148 142.548 21.9692ZM162.277 23.3048C162.277 25.5651 161.535 27.3116 160.051 28.5445C158.567 29.7774 156.455 30.3938 153.716 30.3938C151.124 30.3938 149.064 29.8002 147.534 28.613C146.005 27.4144 145.108 25.6906 144.846 23.4418L149.743 23.0137C150.051 25.3311 151.37 26.4897 153.699 26.4897C154.852 26.4897 155.748 26.2043 156.387 25.6336C157.026 25.0628 157.346 24.1895 157.346 23.0137C157.346 21.9406 156.958 21.1187 156.182 20.5479C155.405 19.9772 154.252 19.6918 152.723 19.6918H151.045V15.8048H152.62C154.001 15.8048 155.04 15.5251 155.736 14.9658C156.433 14.395 156.781 13.5845 156.781 12.5342C156.781 11.5411 156.501 10.7648 155.942 10.2055C155.394 9.6347 154.589 9.34932 153.527 9.34932C152.534 9.34932 151.729 9.62329 151.113 10.1712C150.508 10.7192 150.16 11.4954 150.068 12.5L145.257 12.1575C145.508 10.0799 146.37 8.4532 147.842 7.2774C149.315 6.1016 151.239 5.5137 153.613 5.5137C156.136 5.5137 158.105 6.08448 159.521 7.22603C160.947 8.35616 161.661 9.9258 161.661 11.9349C161.661 13.4418 161.216 14.6804 160.325 15.6507C159.446 16.621 158.174 17.266 156.507 17.5856V17.6541C158.356 17.871 159.777 18.4817 160.771 19.4863C161.775 20.4795 162.277 21.7523 162.277 23.3048ZM178.342 30L173.394 21.6096L171.322 23.0479V30H166.51V4.58904H171.322V19.1438L177.932 11.4726H183.103L176.596 18.6986L183.599 30H178.342ZM197.438 30V19.6062C197.438 16.3527 196.502 14.726 194.63 14.726C193.66 14.726 192.866 15.2226 192.25 16.2158C191.645 17.2089 191.342 18.4932 191.342 20.0685V30H186.531V15.6164C186.531 14.6233 186.514 13.8128 186.479 13.1849C186.457 12.5457 186.428 11.9749 186.394 11.4726H190.983C191.017 11.6895 191.063 12.2717 191.12 13.2192C191.177 14.1553 191.205 14.8002 191.205 15.1541H191.274C191.868 13.7386 192.604 12.7112 193.483 12.0719C194.373 11.4326 195.435 11.113 196.668 11.113C199.499 11.113 201.217 12.46 201.822 15.1541H201.925C202.553 13.7158 203.306 12.6826 204.185 12.0548C205.064 11.4269 206.183 11.113 207.541 11.113C209.345 11.113 210.72 11.7295 211.668 12.9623C212.615 14.1838 213.089 15.9418 213.089 18.2363V30H208.312V19.6062C208.312 16.3527 207.376 14.726 205.503 14.726C204.567 14.726 203.797 15.1826 203.192 16.0959C202.598 16.9977 202.273 18.2477 202.216 19.8459V30H197.438ZM216.123 30.7021L221.106 4.58904H225.182L220.284 30.7021H216.123ZM233.233 15.1712C233.884 13.7557 234.7 12.7283 235.682 12.089C236.663 11.4498 237.833 11.1301 239.192 11.1301C241.155 11.1301 242.662 11.7352 243.712 12.9452C244.763 14.1553 245.288 15.9247 245.288 18.2534V30H240.493V19.6233C240.493 16.3699 239.392 14.7432 237.188 14.7432C236.024 14.7432 235.082 15.2454 234.363 16.25C233.655 17.2432 233.301 18.5217 233.301 20.0856V30H228.49V4.58904H233.301V11.524C233.301 12.7683 233.256 13.984 233.164 15.1712H233.233Z" fill="#0075FF"/>
<path d="M624.216 30V26.661C624.844 25.2797 625.734 23.9326 626.887 22.6199C628.051 21.3071 629.513 19.9372 631.271 18.5103C632.96 17.1404 634.142 16.0103 634.815 15.1199C635.5 14.2295 635.842 13.3562 635.842 12.5C635.842 10.3995 634.787 9.34932 632.675 9.34932C631.647 9.34932 630.86 9.629 630.312 10.1884C629.775 10.7363 629.427 11.5639 629.267 12.6712L624.421 12.3973C624.695 10.1598 625.529 8.4532 626.921 7.2774C628.325 6.1016 630.232 5.5137 632.64 5.5137C635.243 5.5137 637.241 6.10731 638.634 7.29452C640.026 8.48174 640.723 10.1484 640.723 12.2945C640.723 13.4247 640.5 14.4463 640.055 15.3596C639.61 16.2728 639.039 17.1176 638.342 17.8938C637.646 18.6587 636.87 19.3779 636.014 20.0514C635.169 20.7249 634.347 21.3813 633.548 22.0205C632.749 22.6598 632.018 23.3048 631.356 23.9555C630.705 24.6062 630.22 25.3025 629.901 26.0445H641.099V30H624.216ZM661.257 23.3048C661.257 25.5651 660.515 27.3116 659.031 28.5445C657.547 29.7774 655.435 30.3938 652.695 30.3938C650.104 30.3938 648.043 29.8002 646.514 28.613C644.984 27.4144 644.088 25.6906 643.825 23.4418L648.723 23.0137C649.031 25.3311 650.349 26.4897 652.678 26.4897C653.831 26.4897 654.727 26.2043 655.366 25.6336C656.006 25.0628 656.325 24.1895 656.325 23.0137C656.325 21.9406 655.937 21.1187 655.161 20.5479C654.385 19.9772 653.232 19.6918 651.702 19.6918H650.024V15.8048H651.599C652.981 15.8048 654.019 15.5251 654.716 14.9658C655.412 14.395 655.76 13.5845 655.76 12.5342C655.76 11.5411 655.481 10.7648 654.921 10.2055C654.373 9.6347 653.568 9.34932 652.507 9.34932C651.514 9.34932 650.709 9.62329 650.092 10.1712C649.487 10.7192 649.139 11.4954 649.048 12.5L644.236 12.1575C644.487 10.0799 645.349 8.4532 646.822 7.2774C648.295 6.1016 650.218 5.5137 652.592 5.5137C655.115 5.5137 657.084 6.08448 658.5 7.22603C659.927 8.35616 660.64 9.9258 660.64 11.9349C660.64 13.4418 660.195 14.6804 659.305 15.6507C658.426 16.621 657.153 17.266 655.486 17.5856V17.6541C657.336 17.871 658.757 18.4817 659.75 19.4863C660.755 20.4795 661.257 21.7523 661.257 23.3048ZM670.438 28.8699C670.438 30.2397 670.29 31.4498 669.993 32.5C669.708 33.5502 669.24 34.5263 668.589 35.4281H665.421C666.095 34.6176 666.643 33.7272 667.065 32.7568C667.487 31.7865 667.699 30.8676 667.699 30H665.49V24.7774H670.438V28.8699ZM691.538 23.3048C691.538 25.5651 690.796 27.3116 689.312 28.5445C687.828 29.7774 685.716 30.3938 682.976 30.3938C680.385 30.3938 678.324 29.8002 676.795 28.613C675.265 27.4144 674.369 25.6906 674.106 23.4418L679.003 23.0137C679.312 25.3311 680.63 26.4897 682.959 26.4897C684.112 26.4897 685.008 26.2043 685.647 25.6336C686.287 25.0628 686.606 24.1895 686.606 23.0137C686.606 21.9406 686.218 21.1187 685.442 20.5479C684.666 19.9772 683.513 19.6918 681.983 19.6918H680.305V15.8048H681.88C683.261 15.8048 684.3 15.5251 684.997 14.9658C685.693 14.395 686.041 13.5845 686.041 12.5342C686.041 11.5411 685.761 10.7648 685.202 10.2055C684.654 9.6347 683.849 9.34932 682.788 9.34932C681.795 9.34932 680.99 9.62329 680.373 10.1712C679.768 10.7192 679.42 11.4954 679.329 12.5L674.517 12.1575C674.768 10.0799 675.63 8.4532 677.103 7.2774C678.575 6.1016 680.499 5.5137 682.873 5.5137C685.396 5.5137 687.365 6.08448 688.781 7.22603C690.208 8.35616 690.921 9.9258 690.921 11.9349C690.921 13.4418 690.476 14.6804 689.586 15.6507C688.707 16.621 687.434 17.266 685.767 17.5856V17.6541C687.616 17.871 689.038 18.4817 690.031 19.4863C691.035 20.4795 691.538 21.7523 691.538 23.3048ZM705.839 10.9932C705.839 12.4772 705.303 13.75 704.229 14.8116C703.168 15.8619 701.872 16.387 700.342 16.387C698.836 16.387 697.546 15.8676 696.473 14.8288C695.4 13.79 694.863 12.5114 694.863 10.9932C694.863 10.0114 695.103 9.10388 695.582 8.27055C696.073 7.43721 696.735 6.78653 697.568 6.31849C698.413 5.83904 699.338 5.59932 700.342 5.59932C701.884 5.59932 703.185 6.13014 704.247 7.19178C705.308 8.24201 705.839 9.50913 705.839 10.9932ZM703.134 10.9932C703.134 10.1941 702.865 9.52055 702.329 8.9726C701.804 8.42466 701.142 8.15069 700.342 8.15069C699.532 8.15069 698.853 8.43037 698.305 8.98973C697.768 9.53767 697.5 10.2055 697.5 10.9932C697.5 11.7808 697.78 12.46 698.339 13.0308C698.898 13.5902 699.566 13.8699 700.342 13.8699C701.107 13.8699 701.764 13.5902 702.312 13.0308C702.86 12.4715 703.134 11.7922 703.134 10.9932ZM721.476 26.3699C724.524 26.3699 726.642 24.8402 727.829 21.7808L732.229 23.4418C731.282 25.7705 729.889 27.5057 728.051 28.6473C726.225 29.7774 724.033 30.3425 721.476 30.3425C717.595 30.3425 714.592 29.2466 712.469 27.0548C710.357 24.8516 709.301 21.7751 709.301 17.8253C709.301 13.8642 710.323 10.8219 712.366 8.69863C714.41 6.57534 717.372 5.5137 721.253 5.5137C724.084 5.5137 726.39 6.08448 728.171 7.22603C729.952 8.35616 731.202 10.0228 731.921 12.226L727.469 13.4418C727.092 12.2317 726.35 11.2728 725.243 10.5651C724.147 9.84589 722.852 9.4863 721.356 9.4863C719.073 9.4863 717.338 10.1941 716.151 11.6096C714.975 13.0251 714.387 15.097 714.387 17.8253C714.387 20.5993 714.992 22.7169 716.202 24.1781C717.424 25.6393 719.182 26.3699 721.476 26.3699Z" fill="#0075FF"/>
<defs>
<clipPath id="clip0">
<rect width="1831.5" height="198" fill="white" transform="translate(0 173)"/>
</clipPath>
</defs>
</svg>
