<svg width="139" height="98" viewBox="0 0 139 98" fill="none" xmlns="http://www.w3.org/2000/svg">
<path d="M93.6906 84.6507C86.0391 69.6317 70.447 59.3418 52.4322 59.3418C34.4174 59.3418 18.8252 69.6317 11.1738 84.6507H93.6906Z" stroke="#0066FF" stroke-width="3" stroke-miterlimit="10"/>
<path d="M18.8027 84.6504V73.8037" stroke="#0066FF" stroke-width="3" stroke-miterlimit="10"/>
<path d="M27.2129 84.651V66.5732" stroke="#0066FF" stroke-width="3" stroke-miterlimit="10"/>
<path d="M35.6172 84.6508V62.2344" stroke="#0066FF" stroke-width="3" stroke-miterlimit="10"/>
<path d="M44.0273 84.6503V60.0645" stroke="#0066FF" stroke-width="3" stroke-miterlimit="10"/>
<path d="M52.4316 84.6507V59.3418" stroke="#0066FF" stroke-width="3" stroke-miterlimit="10"/>
<path d="M60.8418 84.6503V60.0645" stroke="#0066FF" stroke-width="3" stroke-miterlimit="10"/>
<path d="M69.2461 84.6508V62.2344" stroke="#0066FF" stroke-width="3" stroke-miterlimit="10"/>
<path d="M77.6562 84.651V66.5732" stroke="#0066FF" stroke-width="3" stroke-miterlimit="10"/>
<path d="M86.0605 84.6504V73.8037" stroke="#0066FF" stroke-width="3" stroke-miterlimit="10"/>
<path d="M0 84.6504H15.9103" stroke="#0066FF" stroke-width="3" stroke-miterlimit="10"/>
<path d="M88.9531 84.6504H104.863" stroke="#0066FF" stroke-width="3" stroke-miterlimit="10"/>
<path d="M26.0342 84.6504H11.5703V93.3278H26.0342V84.6504Z" fill="#0066FF" stroke="#0066FF" stroke-width="3" stroke-miterlimit="10"/>
<path d="M93.2926 84.6504H78.1055V93.3278H93.2926V84.6504Z" fill="#0066FF" stroke="#0066FF" stroke-width="3" stroke-miterlimit="10"/>
<path d="M92.0254 19.6718L83.9762 6.86543C81.9947 3.95852 78.7041 2.21582 75.1822 2.21582H12.8281V34.0328H56.9648C57.1456 36.0575 58.8524 37.6483 60.9207 37.6483C62.9891 37.6483 64.6958 36.0575 64.8766 34.0328H66.3592C66.54 36.0575 68.2467 37.6483 70.315 37.6483C72.3834 37.6483 74.0901 36.0575 74.2709 34.0328H84.0775C91.4613 34.0328 95.9524 25.9122 92.0254 19.6718Z" fill="white" stroke="black" stroke-width="3" stroke-miterlimit="10"/>
<path d="M85.2423 9.44727H69.332V21.0171H92.4743L85.2423 9.44727Z" fill="#CCCCCC" stroke="black" stroke-width="3" stroke-miterlimit="10" stroke-linejoin="round"/>
<path d="M57.3987 9.44727H12.8281V21.0171H57.3987V9.44727Z" fill="#CCCCCC" stroke="black" stroke-width="3" stroke-miterlimit="10" stroke-linejoin="round"/>
<path d="M119.863 19.4258H132.863C135.072 19.4258 136.863 21.2166 136.863 23.4258V84.4258C136.863 86.6349 135.072 88.4258 132.863 88.4258H119.863" stroke="black" stroke-width="3"/>
<path d="M126.363 79.9258L117.863 88.4258L126.363 96.9258" stroke="black" stroke-width="3"/>
</svg>
