<svg width="549" height="120" viewBox="0 0 549 120" fill="none" xmlns="http://www.w3.org/2000/svg">
<path d="M503.636 103.113L545.393 103.113L545.393 85.2175L503.636 85.2175L503.636 103.113Z" fill="#333333"/>
<path fill-rule="evenodd" clip-rule="evenodd" d="M548.801 103.888C548.801 105.813 547.247 107.374 545.331 107.374L503.696 107.374C501.78 107.374 500.227 105.813 500.227 103.888L500.227 85.2947C500.227 83.3694 501.78 81.8086 503.696 81.8086L545.331 81.8086C547.247 81.8086 548.801 83.3694 548.801 85.2947L548.801 103.888ZM541.862 100.401L541.862 88.7809L507.166 88.7809L507.166 100.401L541.862 100.401Z" fill="black"/>
<path fill-rule="evenodd" clip-rule="evenodd" d="M548.8 78.3999V110.783H541.982V78.3999H548.8Z" fill="black"/>
<path d="M45.1647 85.2173H3.4082V103.113H45.1647V85.2173Z" fill="#333333"/>
<path fill-rule="evenodd" clip-rule="evenodd" d="M0 85.2948C0 83.3694 1.55338 81.8086 3.46957 81.8086H45.1044C47.0205 81.8086 48.5739 83.3694 48.5739 85.2948V103.888C48.5739 105.813 47.0205 107.374 45.1044 107.374H3.46957C1.55338 107.374 0 105.813 0 103.888V85.2948ZM6.93913 88.7809V100.401H41.6348V88.7809H6.93913Z" fill="black"/>
<path d="M530.548 58.8257L504.978 18.1697C498.683 8.94121 488.229 3.40869 477.041 3.40869H277.851H274.359H75.1693C63.9807 3.40869 53.5273 8.94121 47.2322 18.1697L21.6615 58.8257C9.18634 78.6372 23.4536 104.417 46.8647 104.417H78.0182C78.5925 110.845 84.0145 115.896 90.5853 115.896C97.156 115.896 102.578 110.845 103.152 104.417H107.862C108.437 110.845 113.859 115.896 120.429 115.896C127 115.896 132.422 110.845 132.996 104.417H274.29H277.782H419.076C419.65 110.845 425.072 115.896 431.643 115.896C438.237 115.896 443.636 110.845 444.21 104.417H448.92C449.494 110.845 454.916 115.896 461.487 115.896C468.081 115.896 473.48 110.845 474.054 104.417H505.208C528.756 104.417 543.024 78.6372 530.548 58.8257Z" fill="#585858"/>
<path fill-rule="evenodd" clip-rule="evenodd" d="M44.4232 16.2556C51.358 6.09344 62.8748 0 75.2028 0H477.007C489.335 0 500.852 6.09344 507.787 16.2556L507.823 16.3085L533.422 56.9935C547.348 79.099 531.409 107.833 505.169 107.833H476.853C474.882 114.461 468.745 119.304 461.456 119.304C454.701 119.304 448.907 115.12 446.537 109.205C444.174 115.119 438.393 119.304 431.617 119.304C424.351 119.304 418.196 114.463 416.22 107.833H135.852C133.876 114.463 127.721 119.304 120.455 119.304C113.699 119.304 107.904 115.119 105.536 109.202C103.167 115.119 97.372 119.304 90.6161 119.304C83.3499 119.304 77.1953 114.463 75.2196 107.833H46.9028C20.7875 107.833 4.87023 79.0884 18.7866 56.995C18.7869 56.9945 18.7872 56.994 18.7875 56.9935L44.3871 16.3085L44.4232 16.2556ZM50.1527 20.0808L24.6203 60.659C13.5921 78.1652 26.2043 100.95 46.9028 100.95H81.2028L81.4831 104.085C81.9001 108.751 85.8471 112.421 90.6161 112.421C95.3852 112.421 99.3321 108.751 99.7492 104.085L100.029 100.95H111.042L111.322 104.085C111.739 108.751 115.686 112.421 120.455 112.421C125.224 112.421 129.171 108.751 129.588 104.085L129.868 100.95H422.204L422.484 104.085C422.901 108.751 426.848 112.421 431.617 112.421C436.405 112.421 440.332 108.755 440.75 104.085L441.03 100.95H452.043L452.323 104.085C452.74 108.751 456.687 112.421 461.456 112.421C466.244 112.421 470.171 108.755 470.589 104.085L470.869 100.95H505.169C526.02 100.95 538.61 78.1533 527.59 60.659L527.589 60.6574L502.057 20.0806C496.4 11.8275 487.032 6.88294 477.007 6.88294H75.2028C65.1781 6.88294 55.8095 11.8276 50.1527 20.0808Z" fill="black"/>
<path d="M43.3533 26.4175H93.7381V63.061H20.4512L43.3533 26.4175Z" fill="#CCCCCC"/>
<path fill-rule="evenodd" clip-rule="evenodd" d="M40.4518 24.6214C41.0791 23.6182 42.1793 23.0088 43.363 23.0088H93.7143C95.6103 23.0088 97.1473 24.545 97.1473 26.4399V63.0385C97.1473 64.9335 95.6103 66.4697 93.7143 66.4697H20.476C19.228 66.4697 18.0783 65.7928 17.4733 64.7018C16.8683 63.6109 16.9034 62.2778 17.5648 61.22L40.4518 24.6214ZM45.2657 29.871L26.6701 59.6074H90.2812V29.871H45.2657Z" fill="black"/>
<path d="M359.618 3.40869H276.957V103.965H359.618V3.40869Z" fill="white"/>
<path fill-rule="evenodd" clip-rule="evenodd" d="M273.549 3.45402C273.549 1.54642 275.09 0 276.99 0H359.586C361.486 0 363.027 1.54642 363.027 3.45402V104.772C363.027 106.68 361.486 108.226 359.586 108.226H276.99C275.09 108.226 273.549 106.68 273.549 104.772V3.45402ZM280.432 6.90805V101.318H356.144V6.90805H280.432Z" fill="black"/>
<path d="M276.956 3.40869H194.295V103.965H276.956V3.40869Z" fill="white"/>
<path fill-rule="evenodd" clip-rule="evenodd" d="M190.889 3.45402C190.889 1.54642 192.429 0 194.33 0H276.925C278.826 0 280.367 1.54642 280.367 3.45402V104.772C280.367 106.68 278.826 108.226 276.925 108.226H194.33C192.429 108.226 190.889 106.68 190.889 104.772V3.45402ZM197.772 6.90805V101.318H273.484V6.90805H197.772Z" fill="black"/>
<path d="M122.712 63.0608L175.547 63.0608L175.547 26.4173L122.712 26.4173L122.712 63.0608Z" fill="#CCCCCC"/>
<path fill-rule="evenodd" clip-rule="evenodd" d="M178.957 63.0384C178.957 64.9333 177.409 66.4695 175.498 66.4695L121.911 66.4695C120.001 66.4695 118.453 64.9333 118.453 63.0384L118.453 26.4397C118.453 24.5448 120.001 23.0086 121.911 23.0086L175.498 23.0086C177.409 23.0086 178.957 24.5448 178.957 26.4397L178.957 63.0384ZM172.04 59.6072L172.04 29.8709L125.37 29.8709L125.37 59.6072L172.04 59.6072Z" fill="black"/>
<path d="M207.077 63.0608L259.912 63.0608L259.912 26.4173L207.077 26.4173L207.077 63.0608Z" fill="#CCCCCC"/>
<path fill-rule="evenodd" clip-rule="evenodd" d="M263.322 63.0384C263.322 64.9333 261.796 66.4695 259.912 66.4695L207.08 66.4695C205.197 66.4695 203.67 64.9333 203.67 63.0384L203.67 26.4397C203.67 24.5448 205.197 23.0086 207.08 23.0086L259.912 23.0086C261.796 23.0086 263.322 24.5448 263.322 26.4397L263.322 63.0384ZM256.502 59.6072L256.502 29.8709L210.49 29.8709L210.49 59.6072L256.502 59.6072Z" fill="black"/>
<path d="M508.855 26.4175H458.471V63.061H531.758L508.855 26.4175Z" fill="#CCCCCC"/>
<path fill-rule="evenodd" clip-rule="evenodd" d="M455.061 26.4399C455.061 24.545 456.598 23.0088 458.494 23.0088H508.845C510.029 23.0088 511.129 23.6182 511.756 24.6214L534.643 61.22C535.304 62.2778 535.34 63.6109 534.735 64.7018C534.13 65.7928 532.98 66.4697 531.732 66.4697H458.494C456.598 66.4697 455.061 64.9335 455.061 63.0385V26.4399ZM461.927 29.871V59.6074H525.538L506.942 29.871H461.927Z" fill="black"/>
<path d="M429.496 26.4175H375.809V63.061H429.496V26.4175Z" fill="#CCCCCC"/>
<path fill-rule="evenodd" clip-rule="evenodd" d="M372.398 26.4399C372.398 24.545 373.947 23.0088 375.857 23.0088H429.444C431.354 23.0088 432.903 24.545 432.903 26.4399V63.0385C432.903 64.9335 431.354 66.4697 429.444 66.4697H375.857C373.947 66.4697 372.398 64.9335 372.398 63.0385V26.4399ZM379.316 29.871V59.6074H425.985V29.871H379.316Z" fill="black"/>
<path d="M345.13 26.4175H291.443V63.061H345.13V26.4175Z" fill="#CCCCCC"/>
<path fill-rule="evenodd" clip-rule="evenodd" d="M288.033 26.4399C288.033 24.545 289.582 23.0088 291.492 23.0088H345.079C346.989 23.0088 348.538 24.545 348.538 26.4399V63.0385C348.538 64.9335 346.989 66.4697 345.079 66.4697H291.492C289.582 66.4697 288.033 64.9335 288.033 63.0385V26.4399ZM294.951 29.871V59.6074H341.62V29.871H294.951Z" fill="black"/>
<path fill-rule="evenodd" clip-rule="evenodd" d="M6.81739 78.3999V110.783H0V78.3999H6.81739Z" fill="black"/>
</svg>
