<?xml version="1.0" encoding="utf-8"?>
<!-- Generator: Adobe Illustrator 23.0.3, SVG Export Plug-In . SVG Version: 6.00 Build 0)  -->
<svg version="1.1" id="Ebene_1" xmlns="http://www.w3.org/2000/svg" xmlns:xlink="http://www.w3.org/1999/xlink" x="0px" y="0px"
	 viewBox="0 0 467 86" style="enable-background:new 0 0 467 86;" xml:space="preserve">
<style type="text/css">
	.st0{fill:#17130F;}
	.st1{fill-rule:evenodd;clip-rule:evenodd;fill:#0066FF;}
</style>
<g>
	<polygon class="st0" points="17.6,22.9 25,22.9 25,63.1 17.6,63.1 	"/>
	<polygon class="st0" points="73.3,22.9 73.3,63.1 67.2,63.1 45,35.9 45,63.1 37.6,63.1 37.6,22.9 43.8,22.9 65.9,50.1 65.9,22.9 	
		"/>
	<polygon class="st0" points="93.3,29.2 93.3,41.4 112.7,41.4 112.7,47.7 93.3,47.7 93.3,63.1 85.8,63.1 85.8,22.9 115.2,22.9 
		115.2,29.2 	"/>
	<path class="st0" d="M150.4,63.1l-8.2-11.8c-0.3,0-0.9,0.1-1.6,0.1h-9.1v11.7h-7.5V22.9h16.5c3.5,0,6.5,0.6,9.1,1.7
		s4.6,2.8,5.9,4.9c1.4,2.1,2.1,4.7,2.1,7.6c0,3-0.7,5.6-2.2,7.8s-3.6,3.8-6.3,4.9l9.2,13.2L150.4,63.1L150.4,63.1z M150.3,37.2
		c0-2.6-0.8-4.5-2.5-5.9c-1.7-1.4-4.1-2.1-7.4-2.1h-8.7v16h8.7c3.3,0,5.7-0.7,7.4-2.1C149.4,41.7,150.3,39.8,150.3,37.2L150.3,37.2z
		"/>
	<path class="st0" d="M193.9,53.8h-20.1l-4,9.3h-7.7l18.1-40.2h7.4l18.1,40.2h-7.8L193.9,53.8L193.9,53.8z M191.4,47.9l-7.6-17.6
		l-7.5,17.6H191.4L191.4,47.9z"/>
	<polygon class="st0" points="242.6,22.9 224.8,63.1 220.6,63.1 202.8,22.9 207.4,22.9 222.7,57.8 238.2,22.9 	"/>
	<polygon class="st0" points="249.8,22.9 254,22.9 254,63.1 249.8,63.1 	"/>
	<polygon class="st0" points="297,59.4 297,63.1 268.6,63.1 268.6,22.9 296.1,22.9 296.1,26.6 272.8,26.6 272.8,40.9 293.6,40.9 
		293.6,44.5 272.8,44.5 272.8,59.4 	"/>
	<polygon class="st0" points="363,22.9 349.5,63.1 345,63.1 333.2,28.8 321.4,63.1 317,63.1 303.4,22.9 307.8,22.9 319.4,57.5 
		331.4,22.9 335.3,22.9 347.2,57.6 358.9,22.9 	"/>
	<path class="st1" d="M449.4,45.1c-1.1,17-15.2,30.5-32.5,30.5c-10.7,0-20.2-5.1-26.1-13.1h17.9l17.5-17.5L449.4,45.1L449.4,45.1z
		 M384.3,45.1h36.2L407,58.6h-18.8C386,54.5,384.6,49.9,384.3,45.1L384.3,45.1z M391.5,22.4c6-7.3,15.1-12,25.3-12
		c17.4,0,31.6,13.6,32.6,30.7h-6.2l-13-13c-3.5-3.5-8.6-5.7-13.7-5.7C408.3,22.4,399.9,22.4,391.5,22.4L391.5,22.4z M388.8,26.4
		h27.8c4,0,8,1.7,10.9,4.5c3.4,3.4,6.8,6.8,10.2,10.2h-53.4C384.6,35.8,386.2,30.8,388.8,26.4L388.8,26.4z"/>
</g>
</svg>
