<svg width="164" height="19" viewBox="0 0 164 19" fill="none" xmlns="http://www.w3.org/2000/svg">
<path d="M0 0H3.52055V18.4913H0V0Z" fill="#17130F"/>
<path d="M26.3094 0V18.4913H23.4118L12.954 5.97056V18.4913H9.45703V0H12.3546L22.8172 12.5207V0H26.3094Z" fill="#17130F"/>
<path d="M35.744 2.87948V8.50506H44.8993V11.4121H35.744V18.4913H32.2188V0H46.065V2.87948H35.744Z" fill="#17130F"/>
<path d="M62.7037 18.4913L58.8292 13.0773C58.6688 13.0957 58.4234 13.1049 58.0978 13.1049H53.8174V18.4913H50.2969V0H58.1025C59.7448 0 61.1794 0.26219 62.397 0.791169C63.6145 1.32015 64.5489 2.07452 65.2002 3.06348C65.8515 4.04784 66.1771 5.22079 66.1771 6.57774C66.1771 7.96688 65.8279 9.16743 65.1341 10.1702C64.4404 11.173 63.4399 11.9227 62.1421 12.4149L66.5027 18.4913H62.7037ZM62.6188 6.57774C62.6188 5.40018 62.2224 4.48942 61.4248 3.85925C60.632 3.22447 59.4663 2.90708 57.9279 2.90708H53.808V10.276H57.9279C59.4616 10.276 60.6273 9.954 61.4248 9.31003C62.2224 8.67065 62.6188 7.75989 62.6188 6.57774Z" fill="#17130F"/>
<path d="M83.214 14.2088H73.7284L71.8596 18.4867H68.2305L76.7675 0H80.2362L88.7969 18.4867H85.1111L83.214 14.2088ZM82.0484 11.5179L78.4712 3.43606L74.9223 11.5179H82.0484Z" fill="#17130F"/>
<path d="M106.169 0L97.769 18.4913H95.7869L87.3867 0H89.5576L96.8205 16.058L104.135 0H106.169Z" fill="#17130F"/>
<path d="M109.58 0H111.586V18.4913H109.58V0Z" fill="#17130F"/>
<path d="M131.855 16.7985V18.4913H118.443V0H131.45V1.69273H120.449V8.27047H130.256V9.931H120.449V16.7985H131.855Z" fill="#17130F"/>
<path d="M163.017 0L156.623 18.4913H154.508L148.954 2.72309L143.371 18.4913H141.285L134.891 0H136.948L142.423 15.9016L148.086 0H149.954L155.537 15.9798L161.092 0H163.017Z" fill="#17130F"/>
</svg>
