<svg width="712" height="243" viewBox="0 0 712 243" fill="none" xmlns="http://www.w3.org/2000/svg">
<path d="M181.317 176.51H85.5859V233.942H181.317V176.51Z" fill="#CCCCCC" stroke="#666666" stroke-width="17.7373" stroke-miterlimit="10" stroke-linecap="round" stroke-linejoin="round"/>
<path d="M626.467 176.51H525.949V233.942H626.467V176.51Z" fill="#CCCCCC" stroke="#666666" stroke-width="17.7373" stroke-miterlimit="10" stroke-linecap="round" stroke-linejoin="round"/>
<path d="M629.1 176.51C578.458 77.1048 475.26 9 356.026 9C236.793 9 133.595 77.1048 82.9531 176.51H629.1Z" stroke="#999999" stroke-width="17.7373" stroke-miterlimit="10" stroke-linecap="round" stroke-linejoin="round"/>
<path d="M133.451 176.51V104.72" stroke="#999999" stroke-width="17.7373" stroke-miterlimit="10" stroke-linecap="round" stroke-linejoin="round"/>
<path d="M189.23 176.916L189.23 64.9719" stroke="#999999" stroke-width="17.7373" stroke-miterlimit="10" stroke-linecap="round" stroke-linejoin="round"/>
<path d="M245.203 176.916L245.203 39.2249" stroke="#999999" stroke-width="17.7373" stroke-miterlimit="10" stroke-linecap="round" stroke-linejoin="round"/>
<path d="M300.359 176.51V13.7859" stroke="#999999" stroke-width="17.7373" stroke-miterlimit="10" stroke-linecap="round" stroke-linejoin="round"/>
<path d="M356.027 176.51V9" stroke="#999999" stroke-width="17.7373" stroke-miterlimit="10" stroke-linecap="round" stroke-linejoin="round"/>
<path d="M411.646 176.51V13.7859" stroke="#999999" stroke-width="17.7373" stroke-miterlimit="10" stroke-linecap="round" stroke-linejoin="round"/>
<path d="M466.852 176.916L466.852 39.2249" stroke="#999999" stroke-width="17.7373" stroke-miterlimit="10" stroke-linecap="round" stroke-linejoin="round"/>
<path d="M522.822 176.916L522.822 64.9719" stroke="#999999" stroke-width="17.7373" stroke-miterlimit="10" stroke-linecap="round" stroke-linejoin="round"/>
<path d="M578.602 176.51V104.72" stroke="#999999" stroke-width="17.7373" stroke-miterlimit="10" stroke-linecap="round" stroke-linejoin="round"/>
<path d="M9 176.51H114.304" stroke="#999999" stroke-width="17.7373" stroke-miterlimit="10" stroke-linecap="round" stroke-linejoin="round"/>
<path d="M597.746 176.51H703.05" stroke="#999999" stroke-width="17.7373" stroke-miterlimit="10" stroke-linecap="round" stroke-linejoin="round"/>
</svg>
