<svg width="36" height="36" viewBox="0 0 36 36" fill="none" xmlns="http://www.w3.org/2000/svg">
<path d="M31.5 22.5H28.5V21C28.5 18.45 26.55 16.5 24 16.5H19.5V13.5H22.5C23.4 13.5 24 12.9 24 12V4.5C24 3.6 23.4 3 22.5 3H13.5C12.6 3 12 3.6 12 4.5V12C12 12.9 12.6 13.5 13.5 13.5H16.5V16.5H12C9.45 16.5 7.5 18.45 7.5 21V22.5H4.5C3.6 22.5 3 23.1 3 24V31.5C3 32.4 3.6 33 4.5 33H13.5C14.4 33 15 32.4 15 31.5V24C15 23.1 14.4 22.5 13.5 22.5H10.5V21C10.5 20.1 11.1 19.5 12 19.5H24C24.9 19.5 25.5 20.1 25.5 21V22.5H22.5C21.6 22.5 21 23.1 21 24V31.5C21 32.4 21.6 33 22.5 33H31.5C32.4 33 33 32.4 33 31.5V24C33 23.1 32.4 22.5 31.5 22.5ZM15 10.5V6H21V10.5H15ZM12 30H6V25.5H12V30ZM30 30H24V25.5H30V30Z" fill="#0066FF"/>
</svg>
