<svg width="37" height="36" viewBox="0 0 37 36" fill="none" xmlns="http://www.w3.org/2000/svg">
<g clip-path="url(#clip0)">
<path d="M22.8008 24C22.5008 24 22.3508 24 22.2008 23.85C21.6008 23.55 21.3008 23.1 21.3008 22.5V19.5H19.8008V16.5H22.8008C23.7008 16.5 24.3008 17.1 24.3008 18V19.5L27.9008 16.8C28.2008 16.65 28.5008 16.5 28.8008 16.5H33.3008V6H18.3008V10.5H15.3008V6C15.3008 4.35 16.6508 3 18.3008 3H33.3008C34.9508 3 36.3008 4.35 36.3008 6V16.5C36.3008 18.15 34.9508 19.5 33.3008 19.5H29.2508L23.7008 23.7C23.4008 23.85 23.1008 24 22.8008 24Z" fill="#0066FF"/>
<path d="M12.3008 24C9.00078 24 6.30078 21.3 6.30078 18C6.30078 14.7 9.00078 12 12.3008 12C15.6008 12 18.3008 14.7 18.3008 18C18.3008 21.3 15.6008 24 12.3008 24ZM12.3008 15C10.6508 15 9.30078 16.35 9.30078 18C9.30078 19.65 10.6508 21 12.3008 21C13.9508 21 15.3008 19.65 15.3008 18C15.3008 16.35 13.9508 15 12.3008 15Z" fill="#0066FF"/>
<path d="M24.3008 36H0.300781V34.5C0.300781 29.25 5.25078 25.5 12.3008 25.5C19.3508 25.5 24.3008 29.25 24.3008 34.5V36ZM3.60078 33H21.1508C20.2508 30.3 16.9508 28.5 12.4508 28.5C7.95078 28.5 4.50078 30.3 3.60078 33Z" fill="#0066FF"/>
</g>
<defs>
<clipPath id="clip0">
<rect width="36" height="36" fill="white" transform="translate(0.300781)"/>
</clipPath>
</defs>
</svg>
