<svg width="92" height="92" viewBox="0 0 92 92" fill="none" xmlns="http://www.w3.org/2000/svg">
<path d="M48 22V70C48 71.1 47.1 72 46 72C44.9 72 44 71.1 44 70V22C44 20.9 44.9 20 46 20C47.1 20 48 20.9 48 22Z" fill="#0066FF"/>
<path d="M72 46.7998C72 47.8998 71.1 48.7998 70 48.7998H22C20.9 48.7998 20 47.8998 20 46.7998C20 45.6998 20.9 44.7998 22 44.7998H70C71.1 44.7998 72 45.6998 72 46.7998Z" fill="#0066FF"/>
<path d="M86 0H6C2.7 0 0 2.7 0 6V86C0 89.3 2.7 92 6 92H86C89.3 92 92 89.3 92 86V6C92 2.7 89.3 0 86 0ZM88 86C88 87.1 87.1 88 86 88H6C4.9 88 4 87.1 4 86V6C4 4.9 4.9 4 6 4H86C87.1 4 88 4.9 88 6V86Z" fill="#0066FF"/>
</svg>
