<svg width="92" height="92" viewBox="0 0 92 92" fill="none" xmlns="http://www.w3.org/2000/svg">
<path fill-rule="evenodd" clip-rule="evenodd" d="M48.8012 32.8C48.8012 34.3 47.5012 35.6 46.0012 35.6C44.5012 35.6 43.2012 34.3 43.2012 32.8C43.2012 31.3 44.5012 30 46.0012 30C47.5012 30 48.8012 31.3 48.8012 32.8Z" fill="#0066FF"/>
<path fill-rule="evenodd" clip-rule="evenodd" d="M48.8012 59.1999C48.8012 60.6999 47.5012 61.9999 46.0012 61.9999C44.5012 61.9999 43.2012 60.6999 43.2012 59.1999C43.2012 57.6999 44.5012 56.3999 46.0012 56.3999C47.5012 56.3999 48.8012 57.6999 48.8012 59.1999Z" fill="#0066FF"/>
<path d="M46.0008 17.2998C30.2008 17.2998 17.3008 30.1998 17.3008 45.9998C17.3008 61.7998 30.2008 74.6998 46.0008 74.6998C61.8008 74.6998 74.7008 61.7998 74.7008 45.9998C74.7008 30.1998 61.8008 17.2998 46.0008 17.2998ZM70.4008 48.7998C69.0008 61.0998 58.3008 70.6998 46.0008 70.6998C33.5008 70.6998 22.7008 61.0998 21.6008 48.7998L21.5008 47.9998H27.5008C28.7008 47.9998 29.5008 47.1998 29.5008 45.9998C29.5008 44.9998 28.7008 43.9998 27.5008 43.9998H21.5008L21.6008 43.1998C22.7008 30.8998 33.5008 21.2998 46.0008 21.2998C58.3008 21.2998 69.0008 30.8998 70.4008 43.1998L70.5008 43.9998H64.4008C63.2008 43.9998 62.4008 44.9998 62.4008 45.9998C62.4008 47.1998 63.2008 47.9998 64.4008 47.9998H70.5008L70.4008 48.7998Z" fill="#0066FF"/>
<path d="M86 0H6C2.7 0 0 2.7 0 6V86C0 89.3 2.7 92 6 92H86C89.3 92 92 89.3 92 86V6C92 2.7 89.3 0 86 0ZM88 86C88 87.1 87.1 88 86 88H6C4.9 88 4 87.1 4 86V6C4 4.9 4.9 4 6 4H86C87.1 4 88 4.9 88 6V86Z" fill="#0066FF"/>
</svg>
