<svg width="93" height="80" viewBox="0 0 93 80" fill="none" xmlns="http://www.w3.org/2000/svg">
<path d="M79.9 0H6.1C2.7 0 0 2.7 0 6.1V63.9C0 67.3 2.7 70 6.1 70H69V66H6.1C4.9 66 4 65.1 4 63.9V6.1C4 4.9 4.9 4 6.1 4H79.9C81.1 4 82 4.9 82 6.1V35H86V6.1C86 2.7 83.3 0 79.9 0Z" fill="#0066FF"/>
<path d="M87 78C87 79.1 86.1 80 85 80H21C19.9 80 19 79.1 19 78C19 76.9 19.9 76 21 76H85C85 76 85.1 76 85.2 76C85.4 76 85.5 76 85.6 76.1C86.4 76.3 87 77.1 87 78Z" fill="#0066FF"/>
<path d="M41 57V66H45V57H41ZM65 57V66H69V57H65ZM65 53V66H45V53H0V63.9C0 67.3 2.7 70 6.1 70H69V53H65ZM6.1 66C4.9 66 4 65.1 4 63.9V57H41V66H6.1Z" fill="#0066FF"/>
<path d="M79.5 40C80.3284 40 81 39.3284 81 38.5C81 37.6716 80.3284 37 79.5 37C78.6716 37 78 37.6716 78 38.5C78 39.3284 78.6716 40 79.5 40Z" fill="white"/>
<path d="M79.5 37C78.7 37 78 37.7 78 38.5C78 39.3 78.7 40 79.5 40C80.3 40 81 39.3 81 38.5C81 37.7 80.3 37 79.5 37ZM79.5 37C78.7 37 78 37.7 78 38.5C78 39.3 78.7 40 79.5 40C80.3 40 81 39.3 81 38.5C81 37.7 80.3 37 79.5 37ZM79.5 37C78.7 37 78 37.7 78 38.5C78 39.3 78.7 40 79.5 40C80.3 40 81 39.3 81 38.5C81 37.7 80.3 37 79.5 37ZM82 21.4C81.3 21.1 80.6 21 79.9 21H47.1C43.7 21 41 23.7 41 27.1V73.9C41 74.6 41.1 75.3 41.4 76C42.2 78.3 44.5 80 47.1 80H79.9C82.5 80 84.7 78.4 85.6 76.1V76H47.1C45.9 76 45 75.1 45 73.9V27.1C45 25.9 45.9 25 47.1 25H79.9C81.1 25 82 25.9 82 27.1V35H86V27.1C86 24.5 84.3 22.2 82 21.4ZM79.5 37C78.7 37 78 37.7 78 38.5C78 39.3 78.7 40 79.5 40C80.3 40 81 39.3 81 38.5C81 37.7 80.3 37 79.5 37ZM79.5 37C78.7 37 78 37.7 78 38.5C78 39.3 78.7 40 79.5 40C80.3 40 81 39.3 81 38.5C81 37.7 80.3 37 79.5 37ZM79.5 37C78.7 37 78 37.7 78 38.5C78 39.3 78.7 40 79.5 40C80.3 40 81 39.3 81 38.5C81 37.7 80.3 37 79.5 37ZM79.5 37C78.7 37 78 37.7 78 38.5C78 39.3 78.7 40 79.5 40C80.3 40 81 39.3 81 38.5C81 37.7 80.3 37 79.5 37ZM79.5 37C78.7 37 78 37.7 78 38.5C78 39.3 78.7 40 79.5 40C80.3 40 81 39.3 81 38.5C81 37.7 80.3 37 79.5 37Z" fill="#0066FF"/>
<path d="M69.3 76H65.1C65 75.7 65 75.3 65 74.9V70H69V74.9C69 75 69 75.1 69 75.2C69 75.3 69 75.3 69 75.4C69 75.5 69.1 75.7 69.1 75.8C69.3 75.9 69.3 76 69.3 76Z" fill="white"/>
<path d="M69.2 75.8C69.1 75.6 69.1 75.5 69.1 75.4C69.1 75.4 69.1 75.3 69.1 75.2C69.1 75.1 69.1 75 69.1 74.9V70H65.1V74.9C65.1 75.3 65.1 75.6 65.2 76H69.4C69.3 76 69.3 75.9 69.2 75.8ZM71.1 77C71 77 70.9 77 70.8 77C70.7 77 70.7 77 70.6 77C70.5 77 70.3 76.9 70.2 76.9C70.1 76.9 70.1 76.9 70 76.8C69.9 76.7 69.7 76.6 69.6 76.5C69.5 76.5 69.5 76.4 69.4 76.3C69.3 76.2 69.3 76.1 69.2 76C69.2 76 69.1 75.9 69.1 75.8C69.1 75.7 69 75.6 69 75.4C69 75.4 69 75.3 69 75.2C69 75.1 69 75 69 74.9V66H41V73.9C41 75 41.3 76.1 41.8 77C42.9 78.8 44.8 80 47 80H79.8C82 80 84 78.8 85 77H71.1ZM65 70V74.9C65 75.3 65 75.6 65.1 76H47.1C45.9 76 45 75.1 45 73.9V70H65Z" fill="#0066FF"/>
<path d="M79.5 40C80.3284 40 81 39.3284 81 38.5C81 37.6716 80.3284 37 79.5 37C78.6716 37 78 37.6716 78 38.5C78 39.3284 78.6716 40 79.5 40Z" fill="white"/>
<path d="M79.5 37C78.7 37 78 37.7 78 38.5C78 39.3 78.7 40 79.5 40C80.3 40 81 39.3 81 38.5C81 37.7 80.3 37 79.5 37ZM79.5 37C78.7 37 78 37.7 78 38.5C78 39.3 78.7 40 79.5 40C80.3 40 81 39.3 81 38.5C81 37.7 80.3 37 79.5 37ZM79.5 37C78.7 37 78 37.7 78 38.5C78 39.3 78.7 40 79.5 40C80.3 40 81 39.3 81 38.5C81 37.7 80.3 37 79.5 37ZM79.5 37C78.7 37 78 37.7 78 38.5C78 39.3 78.7 40 79.5 40C80.3 40 81 39.3 81 38.5C81 37.7 80.3 37 79.5 37ZM79.5 37C78.7 37 78 37.7 78 38.5C78 39.3 78.7 40 79.5 40C80.3 40 81 39.3 81 38.5C81 37.7 80.3 37 79.5 37ZM79.5 37C78.7 37 78 37.7 78 38.5C78 39.3 78.7 40 79.5 40C80.3 40 81 39.3 81 38.5C81 37.7 80.3 37 79.5 37ZM79.5 37C78.7 37 78 37.7 78 38.5C78 39.3 78.7 40 79.5 40C80.3 40 81 39.3 81 38.5C81 37.7 80.3 37 79.5 37ZM71.1 31C67.7 31 65 33.7 65 37.1V66H69V37.1C69 35.9 69.9 35 71.1 35H82V31H71.1ZM79.5 37C78.7 37 78 37.7 78 38.5C78 39.3 78.7 40 79.5 40C80.3 40 81 39.3 81 38.5C81 37.7 80.3 37 79.5 37ZM86.9 31H71.1C67.7 31 65 33.7 65 37.1V73.9C65 74.3 65 74.6 65.1 75C65.2 75.3 65.3 75.7 65.4 76C65.8 77.2 66.7 78.3 67.8 79C68.8 79.6 69.9 80 71.1 80H86.9C90.3 80 93 77.3 93 73.9V37.1C93 33.7 90.3 31 86.9 31ZM89 73.9C89 75.1 88.1 76 86.9 76H71.1C71 76 70.9 76 70.8 76C70.7 76 70.7 76 70.6 76C70.5 76 70.3 75.9 70.2 75.9C70.1 75.9 70.1 75.9 70 75.8C69.9 75.7 69.7 75.6 69.6 75.5C69.5 75.5 69.5 75.4 69.4 75.3C69.3 75.2 69.3 75.1 69.2 75C69.2 75 69.1 74.9 69.1 74.8C69.1 74.7 69 74.6 69 74.4C69 74.4 69 74.3 69 74.2C69 74.1 69 74 69 73.9V37.1C69 35.9 69.9 35 71.1 35H86.9C88.1 35 89 35.9 89 37.1V73.9ZM79.5 37C78.7 37 78 37.7 78 38.5C78 39.3 78.7 40 79.5 40C80.3 40 81 39.3 81 38.5C81 37.7 80.3 37 79.5 37ZM79.5 37C78.7 37 78 37.7 78 38.5C78 39.3 78.7 40 79.5 40C80.3 40 81 39.3 81 38.5C81 37.7 80.3 37 79.5 37ZM79.5 37C78.7 37 78 37.7 78 38.5C78 39.3 78.7 40 79.5 40C80.3 40 81 39.3 81 38.5C81 37.7 80.3 37 79.5 37ZM79.5 37C78.7 37 78 37.7 78 38.5C78 39.3 78.7 40 79.5 40C80.3 40 81 39.3 81 38.5C81 37.7 80.3 37 79.5 37ZM79.5 37C78.7 37 78 37.7 78 38.5C78 39.3 78.7 40 79.5 40C80.3 40 81 39.3 81 38.5C81 37.7 80.3 37 79.5 37ZM79.5 37C78.7 37 78 37.7 78 38.5C78 39.3 78.7 40 79.5 40C80.3 40 81 39.3 81 38.5C81 37.7 80.3 37 79.5 37ZM79.5 37C78.7 37 78 37.7 78 38.5C78 39.3 78.7 40 79.5 40C80.3 40 81 39.3 81 38.5C81 37.7 80.3 37 79.5 37ZM79.5 37C78.7 37 78 37.7 78 38.5C78 39.3 78.7 40 79.5 40C80.3 40 81 39.3 81 38.5C81 37.7 80.3 37 79.5 37ZM79.5 37C78.7 37 78 37.7 78 38.5C78 39.3 78.7 40 79.5 40C80.3 40 81 39.3 81 38.5C81 37.7 80.3 37 79.5 37ZM79.5 37C78.7 37 78 37.7 78 38.5C78 39.3 78.7 40 79.5 40C80.3 40 81 39.3 81 38.5C81 37.7 80.3 37 79.5 37ZM79.5 37C78.7 37 78 37.7 78 38.5C78 39.3 78.7 40 79.5 40C80.3 40 81 39.3 81 38.5C81 37.7 80.3 37 79.5 37ZM79.5 37C78.7 37 78 37.7 78 38.5C78 39.3 78.7 40 79.5 40C80.3 40 81 39.3 81 38.5C81 37.7 80.3 37 79.5 37ZM79.5 37C78.7 37 78 37.7 78 38.5C78 39.3 78.7 40 79.5 40C80.3 40 81 39.3 81 38.5C81 37.7 80.3 37 79.5 37Z" fill="#0066FF"/>
<path d="M30.2116 66.1029L24.2266 77.0767L27.7382 78.9919L33.7232 68.0181L30.2116 66.1029Z" fill="#0066FF"/>
</svg>
