<svg width="36" height="36" viewBox="0 0 36 36" fill="none" xmlns="http://www.w3.org/2000/svg">
<path d="M9 6C6.45 6 4.5 7.95 4.5 10.5V27.45L9 34.2L13.5 27.45V10.5C13.5 7.95 11.55 6 9 6ZM10.5 26.55L9 28.8L7.5 26.55V15H10.5V26.55ZM7.5 12V10.5C7.5 9.6 8.1 9 9 9C9.9 9 10.5 9.6 10.5 10.5V12H7.5Z" fill="#0066FF"/>
<path d="M28.5 1.5H19.5C17.85 1.5 16.5 2.85 16.5 4.5V31.5C16.5 33.15 17.85 34.5 19.5 34.5H28.5C30.15 34.5 31.5 33.15 31.5 31.5V4.5C31.5 2.85 30.15 1.5 28.5 1.5ZM19.5 31.5V27H24V24H19.5V19.5H24V16.5H19.5V12H24V9H19.5V4.5H28.5V31.5H19.5Z" fill="#0066FF"/>
</svg>
