<svg width="36" height="36" viewBox="0 0 36 36" fill="none" xmlns="http://www.w3.org/2000/svg">
<path d="M31.5 3H4.5C2.85 3 1.5 4.35 1.5 6V30C1.5 31.65 2.85 33 4.5 33H31.5C33.15 33 34.5 31.65 34.5 30V6C34.5 4.35 33.15 3 31.5 3ZM31.5 9H19.5V6H31.5V9ZM12 9V6H16.5V9H12ZM9 6V9H4.5V6H9ZM4.5 30V12H31.5V30H4.5Z" fill="#0066FF"/>
<path d="M27 22.5H19.5V25.5H27V22.5Z" fill="#0066FF"/>
<path d="M9.45117 17.5492L12.9012 20.9992L9.45117 24.4492L11.5512 26.5492L17.1012 20.9992L11.5512 15.4492L9.45117 17.5492Z" fill="#0066FF"/>
</svg>
