<svg width="88" height="87" viewBox="0 0 88 87" fill="none" xmlns="http://www.w3.org/2000/svg">
<path d="M34.9 46H6.1C2.7 46 0 48.7 0 52.1V80.9C0 84.3 2.7 87 6.1 87H34.9C38.3 87 41 84.3 41 80.9V52.1C41 48.7 38.3 46 34.9 46ZM37 80.9C37 82.1 36.1 83 34.9 83H6.1C4.9 83 4 82.1 4 80.9V52.1C4 50.9 4.9 50 6.1 50H34.9C36.1 50 37 50.9 37 52.1V80.9ZM20.5 53C13.1 53 7 59.1 7 66.5C7 73.9 13.1 80 20.5 80C27.9 80 34 73.9 34 66.5C34 59.1 27.9 53 20.5 53ZM20.5 76C15.3 76 11 71.7 11 66.5C11 61.3 15.3 57 20.5 57C25.7 57 30 61.3 30 66.5C30 71.7 25.7 76 20.5 76ZM20.5 53C13.1 53 7 59.1 7 66.5C7 73.9 13.1 80 20.5 80C27.9 80 34 73.9 34 66.5C34 59.1 27.9 53 20.5 53ZM20.5 76C15.3 76 11 71.7 11 66.5C11 61.3 15.3 57 20.5 57C25.7 57 30 61.3 30 66.5C30 71.7 25.7 76 20.5 76Z" fill="#0066FF"/>
<path d="M20.5 53C13.1 53 7 59.1 7 66.5C7 73.9 13.1 80 20.5 80C27.9 80 34 73.9 34 66.5C34 59.1 27.9 53 20.5 53ZM20.5 76C15.3 76 11 71.7 11 66.5C11 61.3 15.3 57 20.5 57C25.7 57 30 61.3 30 66.5C30 71.7 25.7 76 20.5 76Z" fill="#0066FF"/>
<path d="M28 7H13C9.7 7 7 9.7 7 13V28C7 31.3 9.7 34 13 34H28C31.3 34 34 31.3 34 28V13C34 9.7 31.3 7 28 7ZM30 28C30 29.1 29.1 30 28 30H13C11.9 30 11 29.1 11 28V13C11 11.9 11.9 11 13 11H28C29.1 11 30 11.9 30 13V28ZM28 7H13C9.7 7 7 9.7 7 13V28C7 31.3 9.7 34 13 34H28C31.3 34 34 31.3 34 28V13C34 9.7 31.3 7 28 7ZM30 28C30 29.1 29.1 30 28 30H13C11.9 30 11 29.1 11 28V13C11 11.9 11.9 11 13 11H28C29.1 11 30 11.9 30 13V28ZM28 7H13C9.7 7 7 9.7 7 13V28C7 31.3 9.7 34 13 34H28C31.3 34 34 31.3 34 28V13C34 9.7 31.3 7 28 7ZM30 28C30 29.1 29.1 30 28 30H13C11.9 30 11 29.1 11 28V13C11 11.9 11.9 11 13 11H28C29.1 11 30 11.9 30 13V28ZM28 7H13C9.7 7 7 9.7 7 13V28C7 31.3 9.7 34 13 34H28C31.3 34 34 31.3 34 28V13C34 9.7 31.3 7 28 7ZM30 28C30 29.1 29.1 30 28 30H13C11.9 30 11 29.1 11 28V13C11 11.9 11.9 11 13 11H28C29.1 11 30 11.9 30 13V28ZM28 7H13C9.7 7 7 9.7 7 13V28C7 31.3 9.7 34 13 34H28C31.3 34 34 31.3 34 28V13C34 9.7 31.3 7 28 7ZM30 28C30 29.1 29.1 30 28 30H13C11.9 30 11 29.1 11 28V13C11 11.9 11.9 11 13 11H28C29.1 11 30 11.9 30 13V28ZM28 7H13C9.7 7 7 9.7 7 13V28C7 31.3 9.7 34 13 34H28C31.3 34 34 31.3 34 28V13C34 9.7 31.3 7 28 7ZM30 28C30 29.1 29.1 30 28 30H13C11.9 30 11 29.1 11 28V13C11 11.9 11.9 11 13 11H28C29.1 11 30 11.9 30 13V28ZM34.9 0H6.1C2.7 0 0 2.7 0 6.1V34.9C0 38.3 2.7 41 6.1 41H34.9C38.3 41 41 38.3 41 34.9V6.1C41 2.7 38.3 0 34.9 0ZM37 34.9C37 36.1 36.1 37 34.9 37H6.1C4.9 37 4 36.1 4 34.9V6.1C4 4.9 4.9 4 6.1 4H34.9C36.1 4 37 4.9 37 6.1V34.9ZM28 7H13C9.7 7 7 9.7 7 13V28C7 31.3 9.7 34 13 34H28C31.3 34 34 31.3 34 28V13C34 9.7 31.3 7 28 7ZM30 28C30 29.1 29.1 30 28 30H13C11.9 30 11 29.1 11 28V13C11 11.9 11.9 11 13 11H28C29.1 11 30 11.9 30 13V28ZM28 7H13C9.7 7 7 9.7 7 13V28C7 31.3 9.7 34 13 34H28C31.3 34 34 31.3 34 28V13C34 9.7 31.3 7 28 7ZM30 28C30 29.1 29.1 30 28 30H13C11.9 30 11 29.1 11 28V13C11 11.9 11.9 11 13 11H28C29.1 11 30 11.9 30 13V28ZM28 7H13C9.7 7 7 9.7 7 13V28C7 31.3 9.7 34 13 34H28C31.3 34 34 31.3 34 28V13C34 9.7 31.3 7 28 7ZM30 28C30 29.1 29.1 30 28 30H13C11.9 30 11 29.1 11 28V13C11 11.9 11.9 11 13 11H28C29.1 11 30 11.9 30 13V28ZM28 7H13C9.7 7 7 9.7 7 13V28C7 31.3 9.7 34 13 34H28C31.3 34 34 31.3 34 28V13C34 9.7 31.3 7 28 7ZM30 28C30 29.1 29.1 30 28 30H13C11.9 30 11 29.1 11 28V13C11 11.9 11.9 11 13 11H28C29.1 11 30 11.9 30 13V28ZM28 7H13C9.7 7 7 9.7 7 13V28C7 31.3 9.7 34 13 34H28C31.3 34 34 31.3 34 28V13C34 9.7 31.3 7 28 7ZM30 28C30 29.1 29.1 30 28 30H13C11.9 30 11 29.1 11 28V13C11 11.9 11.9 11 13 11H28C29.1 11 30 11.9 30 13V28ZM28 7H13C9.7 7 7 9.7 7 13V28C7 31.3 9.7 34 13 34H28C31.3 34 34 31.3 34 28V13C34 9.7 31.3 7 28 7ZM30 28C30 29.1 29.1 30 28 30H13C11.9 30 11 29.1 11 28V13C11 11.9 11.9 11 13 11H28C29.1 11 30 11.9 30 13V28Z" fill="#0066FF"/>
<path d="M28 7H13C9.7 7 7 9.7 7 13V28C7 31.3 9.7 34 13 34H28C31.3 34 34 31.3 34 28V13C34 9.7 31.3 7 28 7ZM30 28C30 29.1 29.1 30 28 30H13C11.9 30 11 29.1 11 28V13C11 11.9 11.9 11 13 11H28C29.1 11 30 11.9 30 13V28Z" fill="#0066FF"/>
<path d="M80.3 63.5L70.5 53.7C69.7 52.9 68.6 52.4 67.5 52.4C66.4 52.4 65.3 52.9 64.5 53.7L54.7 63.5C53.1 65.2 53.1 67.8 54.7 69.5L64.5 79.3C65.3 80.1 66.4 80.6 67.5 80.6C68.6 80.6 69.7 80.1 70.5 79.3L80.3 69.5C82 67.8 82 65.2 80.3 63.5ZM77.5 66.7L67.7 76.5C67.6 76.6 67.5 76.6 67.4 76.5L57.6 66.7C57.5 66.6 57.5 66.4 57.6 66.3L67.4 56.5C67.4 56.5 67.5 56.4 67.6 56.4C67.7 56.4 67.7 56.4 67.8 56.5L77.6 66.3C77.6 66.4 77.6 66.6 77.5 66.7ZM80.3 63.5L70.5 53.7C69.7 52.9 68.6 52.4 67.5 52.4C66.4 52.4 65.3 52.9 64.5 53.7L54.7 63.5C53.1 65.2 53.1 67.8 54.7 69.5L64.5 79.3C65.3 80.1 66.4 80.6 67.5 80.6C68.6 80.6 69.7 80.1 70.5 79.3L80.3 69.5C82 67.8 82 65.2 80.3 63.5ZM77.5 66.7L67.7 76.5C67.6 76.6 67.5 76.6 67.4 76.5L57.6 66.7C57.5 66.6 57.5 66.4 57.6 66.3L67.4 56.5C67.4 56.5 67.5 56.4 67.6 56.4C67.7 56.4 67.7 56.4 67.8 56.5L77.6 66.3C77.6 66.4 77.6 66.6 77.5 66.7ZM81.9 46H53.1C49.7 46 47 48.7 47 52.1V80.9C47 84.3 49.7 87 53.1 87H81.9C85.3 87 88 84.3 88 80.9V52.1C88 48.7 85.3 46 81.9 46ZM84 80.9C84 82.1 83.1 83 81.9 83H53.1C51.9 83 51 82.1 51 80.9V52.1C51 50.9 51.9 50 53.1 50H81.9C83.1 50 84 50.9 84 52.1V80.9ZM70.5 53.7C69.7 52.9 68.6 52.4 67.5 52.4C66.4 52.4 65.3 52.9 64.5 53.7L54.7 63.5C53.1 65.2 53.1 67.8 54.7 69.5L64.5 79.3C65.3 80.1 66.4 80.6 67.5 80.6C68.6 80.6 69.7 80.1 70.5 79.3L80.3 69.5C81.9 67.8 81.9 65.2 80.3 63.5L70.5 53.7ZM77.5 66.7L67.7 76.5C67.6 76.6 67.5 76.6 67.4 76.5L57.6 66.7C57.5 66.6 57.5 66.4 57.6 66.3L67.4 56.5C67.4 56.5 67.5 56.4 67.6 56.4C67.7 56.4 67.7 56.4 67.8 56.5L77.6 66.3C77.6 66.4 77.6 66.6 77.5 66.7ZM80.3 63.5L70.5 53.7C69.7 52.9 68.6 52.4 67.5 52.4C66.4 52.4 65.3 52.9 64.5 53.7L54.7 63.5C53.1 65.2 53.1 67.8 54.7 69.5L64.5 79.3C65.3 80.1 66.4 80.6 67.5 80.6C68.6 80.6 69.7 80.1 70.5 79.3L80.3 69.5C82 67.8 82 65.2 80.3 63.5ZM77.5 66.7L67.7 76.5C67.6 76.6 67.5 76.6 67.4 76.5L57.6 66.7C57.5 66.6 57.5 66.4 57.6 66.3L67.4 56.5C67.4 56.5 67.5 56.4 67.6 56.4C67.7 56.4 67.7 56.4 67.8 56.5L77.6 66.3C77.6 66.4 77.6 66.6 77.5 66.7ZM80.3 63.5L70.5 53.7C69.7 52.9 68.6 52.4 67.5 52.4C66.4 52.4 65.3 52.9 64.5 53.7L54.7 63.5C53.1 65.2 53.1 67.8 54.7 69.5L64.5 79.3C65.3 80.1 66.4 80.6 67.5 80.6C68.6 80.6 69.7 80.1 70.5 79.3L80.3 69.5C82 67.8 82 65.2 80.3 63.5ZM77.5 66.7L67.7 76.5C67.6 76.6 67.5 76.6 67.4 76.5L57.6 66.7C57.5 66.6 57.5 66.4 57.6 66.3L67.4 56.5C67.4 56.5 67.5 56.4 67.6 56.4C67.7 56.4 67.7 56.4 67.8 56.5L77.6 66.3C77.6 66.4 77.6 66.6 77.5 66.7ZM80.3 63.5L70.5 53.7C69.7 52.9 68.6 52.4 67.5 52.4C66.4 52.4 65.3 52.9 64.5 53.7L54.7 63.5C53.1 65.2 53.1 67.8 54.7 69.5L64.5 79.3C65.3 80.1 66.4 80.6 67.5 80.6C68.6 80.6 69.7 80.1 70.5 79.3L80.3 69.5C82 67.8 82 65.2 80.3 63.5ZM77.5 66.7L67.7 76.5C67.6 76.6 67.5 76.6 67.4 76.5L57.6 66.7C57.5 66.6 57.5 66.4 57.6 66.3L67.4 56.5C67.4 56.5 67.5 56.4 67.6 56.4C67.7 56.4 67.7 56.4 67.8 56.5L77.6 66.3C77.6 66.4 77.6 66.6 77.5 66.7Z" fill="#0066FF"/>
<path d="M80.3 63.4999L70.5 53.6999C69.7 52.8999 68.6 52.3999 67.5 52.3999C66.4 52.3999 65.3 52.8999 64.5 53.6999L54.7 63.4999C53.1 65.1999 53.1 67.7999 54.7 69.4999L64.5 79.2999C65.3 80.0999 66.4 80.5999 67.5 80.5999C68.6 80.5999 69.7 80.0999 70.5 79.2999L80.3 69.4999C82 67.7999 82 65.1999 80.3 63.4999ZM77.5 66.6999L67.7 76.4999C67.6 76.5999 67.5 76.5999 67.4 76.4999L57.6 66.6999C57.5 66.5999 57.5 66.3999 57.6 66.2999L67.4 56.4999C67.4 56.4999 67.5 56.3999 67.6 56.3999C67.7 56.3999 67.7 56.3999 67.8 56.4999L77.6 66.2999C77.6 66.3999 77.6 66.5999 77.5 66.6999Z" fill="#0066FF"/>
<path d="M80.1 25.5L71.6 10.7C70.8 9.2 69.2 8.4 67.6 8.4C66 8.4 64.4 9.3 63.6 10.7L55 25.5C54.1 27 54.1 28.7 55 30.2C55.8 31.7 57.3 32.5 59 32.5H76C77.7 32.5 79.2 31.6 80 30.2C80.9 28.8 80.9 27 80.1 25.5ZM76.6 28.2C76.5 28.3 76.4 28.5 76 28.5H59C58.7 28.5 58.5 28.3 58.4 28.2C58.3 28.1 58.2 27.8 58.4 27.5L66.9 12.7C67.1 12.4 67.3 12.4 67.5 12.4C67.7 12.4 67.9 12.4 68.1 12.7L76.6 27.5C76.8 27.8 76.7 28.1 76.6 28.2ZM80.1 25.5L71.6 10.7C70.8 9.2 69.2 8.4 67.6 8.4C66 8.4 64.4 9.3 63.6 10.7L55 25.5C54.1 27 54.1 28.7 55 30.2C55.8 31.7 57.3 32.5 59 32.5H76C77.7 32.5 79.2 31.6 80 30.2C80.9 28.8 80.9 27 80.1 25.5ZM76.6 28.2C76.5 28.3 76.4 28.5 76 28.5H59C58.7 28.5 58.5 28.3 58.4 28.2C58.3 28.1 58.2 27.8 58.4 27.5L66.9 12.7C67.1 12.4 67.3 12.4 67.5 12.4C67.7 12.4 67.9 12.4 68.1 12.7L76.6 27.5C76.8 27.8 76.7 28.1 76.6 28.2ZM80.1 25.5L71.6 10.7C70.8 9.2 69.2 8.4 67.6 8.4C66 8.4 64.4 9.3 63.6 10.7L55 25.5C54.1 27 54.1 28.7 55 30.2C55.8 31.7 57.3 32.5 59 32.5H76C77.7 32.5 79.2 31.6 80 30.2C80.9 28.8 80.9 27 80.1 25.5ZM76.6 28.2C76.5 28.3 76.4 28.5 76 28.5H59C58.7 28.5 58.5 28.3 58.4 28.2C58.3 28.1 58.2 27.8 58.4 27.5L66.9 12.7C67.1 12.4 67.3 12.4 67.5 12.4C67.7 12.4 67.9 12.4 68.1 12.7L76.6 27.5C76.8 27.8 76.7 28.1 76.6 28.2ZM80.1 25.5L71.6 10.7C70.8 9.2 69.2 8.4 67.6 8.4C66 8.4 64.4 9.3 63.6 10.7L55 25.5C54.1 27 54.1 28.7 55 30.2C55.8 31.7 57.3 32.5 59 32.5H76C77.7 32.5 79.2 31.6 80 30.2C80.9 28.8 80.9 27 80.1 25.5ZM76.6 28.2C76.5 28.3 76.4 28.5 76 28.5H59C58.7 28.5 58.5 28.3 58.4 28.2C58.3 28.1 58.2 27.8 58.4 27.5L66.9 12.7C67.1 12.4 67.3 12.4 67.5 12.4C67.7 12.4 67.9 12.4 68.1 12.7L76.6 27.5C76.8 27.8 76.7 28.1 76.6 28.2ZM81.9 0H53.1C49.7 0 47 2.7 47 6.1V34.9C47 38.3 49.7 41 53.1 41H81.9C85.3 41 88 38.3 88 34.9V6.1C88 2.7 85.3 0 81.9 0ZM84 34.9C84 36.1 83.1 37 81.9 37H53.1C51.9 37 51 36.1 51 34.9V6.1C51 4.9 51.9 4 53.1 4H81.9C83.1 4 84 4.9 84 6.1V34.9ZM71.5 10.8C70.7 9.3 69.1 8.5 67.5 8.5C65.9 8.5 64.3 9.4 63.5 10.8L55 25.5C54.1 27 54.1 28.7 55 30.2C55.8 31.7 57.3 32.5 59 32.5H76C77.7 32.5 79.2 31.6 80 30.2C80.8 28.7 80.8 27 80 25.5L71.5 10.8ZM76.6 28.2C76.5 28.3 76.4 28.5 76 28.5H59C58.7 28.5 58.5 28.3 58.4 28.2C58.3 28.1 58.2 27.8 58.4 27.5L66.9 12.7C67.1 12.4 67.3 12.4 67.5 12.4C67.7 12.4 67.9 12.4 68.1 12.7L76.6 27.5C76.8 27.8 76.7 28.1 76.6 28.2ZM80.1 25.5L71.6 10.7C70.8 9.2 69.2 8.4 67.6 8.4C66 8.4 64.4 9.3 63.6 10.7L55 25.5C54.1 27 54.1 28.7 55 30.2C55.8 31.7 57.3 32.5 59 32.5H76C77.7 32.5 79.2 31.6 80 30.2C80.9 28.8 80.9 27 80.1 25.5ZM76.6 28.2C76.5 28.3 76.4 28.5 76 28.5H59C58.7 28.5 58.5 28.3 58.4 28.2C58.3 28.1 58.2 27.8 58.4 27.5L66.9 12.7C67.1 12.4 67.3 12.4 67.5 12.4C67.7 12.4 67.9 12.4 68.1 12.7L76.6 27.5C76.8 27.8 76.7 28.1 76.6 28.2ZM80.1 25.5L71.6 10.7C70.8 9.2 69.2 8.4 67.6 8.4C66 8.4 64.4 9.3 63.6 10.7L55 25.5C54.1 27 54.1 28.7 55 30.2C55.8 31.7 57.3 32.5 59 32.5H76C77.7 32.5 79.2 31.6 80 30.2C80.9 28.8 80.9 27 80.1 25.5ZM76.6 28.2C76.5 28.3 76.4 28.5 76 28.5H59C58.7 28.5 58.5 28.3 58.4 28.2C58.3 28.1 58.2 27.8 58.4 27.5L66.9 12.7C67.1 12.4 67.3 12.4 67.5 12.4C67.7 12.4 67.9 12.4 68.1 12.7L76.6 27.5C76.8 27.8 76.7 28.1 76.6 28.2ZM80.1 25.5L71.6 10.7C70.8 9.2 69.2 8.4 67.6 8.4C66 8.4 64.4 9.3 63.6 10.7L55 25.5C54.1 27 54.1 28.7 55 30.2C55.8 31.7 57.3 32.5 59 32.5H76C77.7 32.5 79.2 31.6 80 30.2C80.9 28.8 80.9 27 80.1 25.5ZM76.6 28.2C76.5 28.3 76.4 28.5 76 28.5H59C58.7 28.5 58.5 28.3 58.4 28.2C58.3 28.1 58.2 27.8 58.4 27.5L66.9 12.7C67.1 12.4 67.3 12.4 67.5 12.4C67.7 12.4 67.9 12.4 68.1 12.7L76.6 27.5C76.8 27.8 76.7 28.1 76.6 28.2ZM80.1 25.5L71.6 10.7C70.8 9.2 69.2 8.4 67.6 8.4C66 8.4 64.4 9.3 63.6 10.7L55 25.5C54.1 27 54.1 28.7 55 30.2C55.8 31.7 57.3 32.5 59 32.5H76C77.7 32.5 79.2 31.6 80 30.2C80.9 28.8 80.9 27 80.1 25.5ZM76.6 28.2C76.5 28.3 76.4 28.5 76 28.5H59C58.7 28.5 58.5 28.3 58.4 28.2C58.3 28.1 58.2 27.8 58.4 27.5L66.9 12.7C67.1 12.4 67.3 12.4 67.5 12.4C67.7 12.4 67.9 12.4 68.1 12.7L76.6 27.5C76.8 27.8 76.7 28.1 76.6 28.2ZM80.1 25.5L71.6 10.7C70.8 9.2 69.2 8.4 67.6 8.4C66 8.4 64.4 9.3 63.6 10.7L55 25.5C54.1 27 54.1 28.7 55 30.2C55.8 31.7 57.3 32.5 59 32.5H76C77.7 32.5 79.2 31.6 80 30.2C80.9 28.8 80.9 27 80.1 25.5ZM76.6 28.2C76.5 28.3 76.4 28.5 76 28.5H59C58.7 28.5 58.5 28.3 58.4 28.2C58.3 28.1 58.2 27.8 58.4 27.5L66.9 12.7C67.1 12.4 67.3 12.4 67.5 12.4C67.7 12.4 67.9 12.4 68.1 12.7L76.6 27.5C76.8 27.8 76.7 28.1 76.6 28.2Z" fill="#0066FF"/>
<path d="M80.0992 25.4999L71.5992 10.6999C70.7992 9.1999 69.1992 8.3999 67.5992 8.3999C65.9992 8.3999 64.3992 9.2999 63.5992 10.6999L54.9992 25.4999C54.0992 26.9999 54.0992 28.6999 54.9992 30.1999C55.7992 31.6999 57.2992 32.4999 58.9992 32.4999H75.9992C77.6992 32.4999 79.1992 31.5999 79.9992 30.1999C80.8992 28.7999 80.8992 26.9999 80.0992 25.4999ZM76.5992 28.1999C76.4992 28.2999 76.3992 28.4999 75.9992 28.4999H58.9992C58.6992 28.4999 58.4992 28.2999 58.3992 28.1999C58.2992 28.0999 58.1992 27.7999 58.3992 27.4999L66.8992 12.6999C67.0992 12.3999 67.2992 12.3999 67.4992 12.3999C67.6992 12.3999 67.8992 12.3999 68.0992 12.6999L76.5992 27.4999C76.7992 27.7999 76.6992 28.0999 76.5992 28.1999Z" fill="#0066FF"/>
</svg>
