<svg width="36" height="36" viewBox="0 0 36 36" fill="none" xmlns="http://www.w3.org/2000/svg">
<path d="M30 3H6C4.35 3 3 4.35 3 6V30C3 31.65 4.35 33 6 33H30C31.65 33 33 31.65 33 30V6C33 4.35 31.65 3 30 3ZM30 6V12H29.4L27 14.4L20.85 8.25L14.85 15.75L10.5 11.4L6.9 15H6V6H30ZM6 30V18H8.1L10.5 15.6L15.15 20.25L21.15 12.75L27 18.6L30 15.6V30H6Z" fill="#0066FF"/>
<path d="M10.5 24H7.5V28.5H10.5V24Z" fill="#0066FF"/>
<path d="M16.5 21H13.5V28.5H16.5V21Z" fill="#0066FF"/>
<path d="M22.5 24H19.5V28.5H22.5V24Z" fill="#0066FF"/>
<path d="M28.5 21H25.5V28.5H28.5V21Z" fill="#0066FF"/>
</svg>
