<svg width="36" height="36" viewBox="0 0 36 36" fill="none" xmlns="http://www.w3.org/2000/svg">
<path d="M33 25.05L27.45 7.35C27 5.7 25.35 4.5 23.55 4.5C21.3 4.5 19.5 6.3 19.5 8.55V10.5H16.5V8.55C16.5 6.3 14.7 4.5 12.45 4.5C10.65 4.5 9 5.7 8.55 7.35L3 25.05C3 25.2 3 25.35 3 25.5V26.25C3 30 6 33 9.75 33C13.5 33 16.5 30 16.5 26.25V19.5H19.5V26.25C19.5 30 22.5 33 26.25 33C30 33 33 30 33 26.25V25.5C33 25.35 33 25.2 33 25.05ZM9.75 30C7.65 30 6 28.35 6 26.25C6 24.15 7.65 22.5 9.75 22.5C11.85 22.5 13.5 24.15 13.5 26.25C13.5 28.35 11.85 30 9.75 30ZM13.5 20.7C12.45 19.95 11.1 19.5 9.75 19.5C9 19.5 8.4 19.65 7.8 19.8L11.4 8.25C11.55 7.8 12 7.5 12.45 7.5C13.05 7.5 13.5 7.95 13.5 8.55V10.5V19.5V20.7ZM16.5 16.5V13.5H19.5V16.5H16.5ZM22.5 10.5V8.55C22.5 7.95 22.95 7.5 23.55 7.5C24 7.5 24.45 7.8 24.6 8.25L28.2 19.8C27.6 19.65 27 19.5 26.25 19.5C24.9 19.5 23.55 19.95 22.5 20.7V19.5V10.5ZM26.25 30C24.15 30 22.5 28.35 22.5 26.25C22.5 24.15 24.15 22.5 26.25 22.5C28.35 22.5 30 24.15 30 26.25C30 28.35 28.35 30 26.25 30Z" fill="#0066FF"/>
</svg>
