<svg width="871" height="485" viewBox="0 0 871 485" fill="none" xmlns="http://www.w3.org/2000/svg">
<g clip-path="url(#clip0)">
<path d="M437.901 322.6C441.27 322.6 444.001 319.869 444.001 316.5C444.001 313.131 441.27 310.4 437.901 310.4C434.532 310.4 431.801 313.131 431.801 316.5C431.801 319.869 434.532 322.6 437.901 322.6Z" fill="#0066FF"/>
<path d="M468 286H448H403.7C390.1 286 379 297.1 379 310.7V428.1V460.2C379 461.7 379.1 463.2 379.4 464.6C379.6 466 380 467.4 380.5 468.7C382.3 473.7 385.7 478 390.1 480.9C394 483.5 398.7 485 403.7 485H468C481.6 485 492.7 473.9 492.7 460.3V310.7C492.7 297.1 481.6 286 468 286ZM476.5 460.2C476.5 464.9 472.7 468.7 468 468.7H403.7C403.3 468.7 402.9 468.7 402.6 468.6C402.3 468.6 402 468.5 401.8 468.4C401.2 468.3 400.7 468.1 400.2 467.8C400 467.7 399.8 467.6 399.5 467.5C398.9 467.2 398.3 466.7 397.8 466.2C397.6 466 397.4 465.8 397.2 465.6C396.9 465.3 396.7 465 396.5 464.6C396.4 464.4 396.3 464.2 396.1 464C396.1 464 396.1 464 396.1 463.9C396.1 463.9 396.1 463.8 396 463.7C395.8 463.3 395.6 462.8 395.5 462.2C395.4 462 395.4 461.8 395.3 461.6C395.3 461.6 395.3 461.5 395.3 461.4C395.3 461 395.2 460.5 395.2 460.1V428V310.7C395.2 306 399 302.2 403.7 302.2H448H468C472.7 302.2 476.5 306 476.5 310.7V460.2Z" fill="#0066FF"/>
</g>
<path d="M435 32L435 162" stroke="#0066FF" stroke-width="4"/>
<circle cx="12" cy="352" r="12" fill="#0066FF"/>
<circle cx="435" cy="12" r="12" fill="#0066FF"/>
<circle cx="859" cy="352" r="12" transform="rotate(180 859 352)" fill="#0066FF"/>
<path d="M413 243L434.5 265.558L456 243" stroke="#0066FF" stroke-width="4"/>
<circle cx="435" cy="161" r="25" fill="#0066FF"/>
<line x1="435" y1="153" x2="435" y2="254" stroke="#0066FF" stroke-width="4"/>
<path d="M406 187L241.124 352H32" stroke="#0066FF" stroke-width="4"/>
<path d="M465 187L629.876 352H839" stroke="#0066FF" stroke-width="4"/>
<defs>
<clipPath id="clip0">
<rect width="113.7" height="199" fill="white" transform="translate(379 286)"/>
</clipPath>
</defs>
</svg>
