<svg width="222" height="254" viewBox="0 0 222 254" fill="none" xmlns="http://www.w3.org/2000/svg">
<path d="M8.35078 137.175C8.35078 139.481 6.4814 141.351 4.17539 141.351C1.86939 141.351 0 139.481 0 137.175C0 134.869 1.86939 133 4.17539 133C6.4814 133 8.35078 134.869 8.35078 137.175Z" fill="#0066FF"/>
<path d="M213.649 137.175C213.649 134.869 215.519 133 217.825 133C220.131 133 222 134.869 222 137.175C222 139.481 220.131 141.351 217.825 141.351C215.519 141.351 213.649 139.481 213.649 137.175Z" fill="#0066FF"/>
<path fill-rule="evenodd" clip-rule="evenodd" d="M11 136L111 136L111 138L11 138L11 136Z" fill="#0066FF"/>
<path fill-rule="evenodd" clip-rule="evenodd" d="M212 138L113 138L113 136L212 136V138Z" fill="#0066FF"/>
<path d="M120.397 136.699C120.397 141.503 116.503 145.397 111.699 145.397C106.895 145.397 103 141.503 103 136.699C103 131.895 106.895 128 111.699 128C116.503 128 120.397 131.895 120.397 136.699Z" fill="#0066FF"/>
<path fill-rule="evenodd" clip-rule="evenodd" d="M111.984 176.173L103.999 167.796L105.007 166.836L111.984 174.156L118.961 166.836L119.969 167.796L111.984 176.173Z" fill="#0066FF"/>
<path fill-rule="evenodd" clip-rule="evenodd" d="M111 171L111 136L113 136L113 171L111 171Z" fill="#0066FF"/>
<path d="M113.202 197.691C114.357 197.691 115.294 196.744 115.294 195.576C115.294 194.407 114.357 193.46 113.202 193.46C112.046 193.46 111.109 194.407 111.109 195.576C111.109 196.744 112.046 197.691 113.202 197.691Z" fill="#0066FF"/>
<path d="M123.528 185H116.668H101.472C96.8074 185 93 188.849 93 193.564V234.271V245.401C93 245.921 93.0343 246.441 93.1372 246.927C93.2058 247.412 93.343 247.897 93.5145 248.348C94.1319 250.082 95.2982 251.573 96.8074 252.578C98.1451 253.48 99.7573 254 101.472 254H123.528C128.193 254 132 250.151 132 245.436V193.564C132 188.849 128.193 185 123.528 185ZM126.443 245.401C126.443 247.031 125.14 248.348 123.528 248.348H101.472C101.335 248.348 101.198 248.348 101.095 248.314C100.992 248.314 100.889 248.279 100.821 248.244C100.615 248.21 100.443 248.14 100.272 248.036C100.203 248.002 100.135 247.967 100.032 247.932C99.8259 247.828 99.6201 247.655 99.4485 247.481C99.3799 247.412 99.3113 247.343 99.2427 247.273C99.1398 247.169 99.0712 247.065 99.0026 246.927C98.9683 246.857 98.934 246.788 98.8654 246.719C98.8654 246.719 98.8654 246.719 98.8654 246.684C98.8654 246.684 98.8654 246.649 98.8311 246.615C98.7625 246.476 98.6939 246.303 98.6596 246.094C98.6253 246.025 98.6253 245.956 98.591 245.886C98.591 245.886 98.591 245.852 98.591 245.817C98.591 245.678 98.5567 245.505 98.5567 245.366V234.236V193.564C98.5567 191.935 99.8602 190.617 101.472 190.617H116.668H123.528C125.14 190.617 126.443 191.935 126.443 193.564V245.401Z" fill="#0066FF"/>
</svg>
