<svg width="552" height="254" viewBox="0 0 552 254" fill="none" xmlns="http://www.w3.org/2000/svg">
<path d="M532.412 125.145L479.317 40.6703C466.246 21.4954 444.54 10 421.308 10H10V219.875H301.14C302.333 233.231 313.591 243.724 327.235 243.724C340.878 243.724 352.136 233.231 353.329 219.875H363.108C364.301 233.231 375.559 243.724 389.203 243.724C402.846 243.724 414.105 233.231 415.297 219.875H479.984C528.691 219.875 558.315 166.309 532.412 125.145Z" fill="white" stroke="#666666" stroke-width="19.789" stroke-miterlimit="10"/>
<path d="M487.665 57.6987H382.715V134.017H535.369L487.665 57.6987Z" fill="#CCCCCC" stroke="#666666" stroke-width="19.789" stroke-miterlimit="10" stroke-linejoin="round"/>
<path d="M304.003 57.6987H10V134.017H304.003V57.6987Z" fill="#CCCCCC" stroke="#666666" stroke-width="19.789" stroke-miterlimit="10" stroke-linejoin="round"/>
</svg>
