<svg width="597" height="179" viewBox="0 0 597 179" fill="none" xmlns="http://www.w3.org/2000/svg">
<path fill-rule="evenodd" clip-rule="evenodd" d="M375.48 156.625C375.48 159.714 377.985 162.219 381.074 162.219C384.164 162.219 386.668 159.714 386.668 156.625C386.668 153.536 384.164 151.031 381.074 151.031C377.985 151.031 375.48 153.536 375.48 156.625ZM381.074 134.25C368.717 134.25 358.699 144.268 358.699 156.625C358.699 168.982 368.717 179 381.074 179C393.432 179 403.449 168.982 403.449 156.625C403.449 144.268 393.432 134.25 381.074 134.25Z" fill="black"/>
<path fill-rule="evenodd" clip-rule="evenodd" d="M466.379 156.625C466.379 159.714 468.883 162.219 471.973 162.219C475.062 162.219 477.566 159.714 477.566 156.625C477.566 153.536 475.062 151.031 471.973 151.031C468.883 151.031 466.379 153.536 466.379 156.625ZM471.973 134.25C459.615 134.25 449.598 144.268 449.598 156.625C449.598 168.982 459.615 179 471.973 179C484.33 179 494.348 168.982 494.348 156.625C494.348 144.268 484.33 134.25 471.973 134.25Z" fill="black"/>
<path fill-rule="evenodd" clip-rule="evenodd" d="M80.4102 156.625C80.4102 159.714 82.9146 162.219 86.0039 162.219C89.0932 162.219 91.5977 159.714 91.5977 156.625C91.5977 153.536 89.0932 151.031 86.0039 151.031C82.9146 151.031 80.4102 153.536 80.4102 156.625ZM86.0039 134.25C73.6465 134.25 63.6289 144.268 63.6289 156.625C63.6289 168.982 73.6465 179 86.0039 179C98.3613 179 108.379 168.982 108.379 156.625C108.379 144.268 98.3613 134.25 86.0039 134.25Z" fill="black"/>
<path fill-rule="evenodd" clip-rule="evenodd" d="M172.707 156.625C172.707 159.714 175.211 162.219 178.301 162.219C181.39 162.219 183.895 159.714 183.895 156.625C183.895 153.536 181.39 151.031 178.301 151.031C175.211 151.031 172.707 153.536 172.707 156.625ZM178.301 134.25C165.943 134.25 155.926 144.268 155.926 156.625C155.926 168.982 165.943 179 178.301 179C190.658 179 200.676 168.982 200.676 156.625C200.676 144.268 190.658 134.25 178.301 134.25Z" fill="black"/>
<path fill-rule="evenodd" clip-rule="evenodd" d="M-5.25698e-06 138.445L0 18.1797L15.3828 18.1797L15.3828 138.445L-5.25698e-06 138.445Z" fill="black"/>
<path d="M413.312 18.2343H343.302H181.79C181.79 18.2343 171.964 6.99219 151.084 6.99219H20.2773V151.031L391.203 148.923C432.503 148.923 466.714 146.061 498.06 146.113C566.841 151.734 602.142 145.573 585.264 115.9C576.118 99.8209 544.855 75.3946 531.805 64.6078C483.321 31.5842 450.797 19.3155 413.312 18.2343Z" fill="white"/>
<path fill-rule="evenodd" clip-rule="evenodd" d="M13.2852 0H151.084C162.837 0 171.671 3.17721 177.659 6.49881C180.636 8.15062 182.889 9.82555 184.441 11.1366C184.483 11.172 184.524 11.2072 184.565 11.2421H413.412L413.513 11.245C452.833 12.3791 486.655 25.3953 535.741 58.8288L536.009 59.0115L536.26 59.2183C537.673 60.3865 539.326 61.7356 541.16 63.2322C547.614 68.4989 556.307 75.5919 564.658 83.0558C575.18 92.4599 586.129 103.278 591.342 112.443C595.984 120.605 598.151 129.048 594.852 136.698C591.604 144.23 584.12 148.467 575.774 150.945C559.086 155.9 531.923 155.884 497.77 153.105C483.256 153.089 468.097 153.7 451.696 154.362C450.684 154.403 449.667 154.444 448.645 154.485C431.013 155.194 412.018 155.915 391.223 155.916C391.216 155.916 391.21 155.916 391.203 155.916L13.2852 158.063V0ZM27.2695 13.9844V143.999L391.183 141.931H391.203C411.699 141.931 430.453 141.221 448.083 140.512C449.133 140.47 450.18 140.428 451.223 140.385C467.64 139.723 483.166 139.096 498.071 139.121L498.351 139.121L498.629 139.144C533.126 141.963 557.901 141.664 571.794 137.539C578.761 135.47 581.237 132.954 582.011 131.161C582.733 129.486 582.983 126.032 579.186 119.357C575.253 112.443 565.997 103.008 555.339 93.4827C547.251 86.2543 538.916 79.4515 532.471 74.192C531.689 73.5535 530.934 72.9377 530.211 72.3467C499.124 80.8989 477.202 75.5149 461.71 64.3111C446.296 53.165 438.298 36.9385 433.593 27.0967C426.861 26.0273 420.118 25.4296 413.21 25.2264H178.615L176.565 22.8815C176.541 22.8562 176.486 22.7982 176.399 22.7119C176.214 22.5279 175.887 22.2167 175.416 21.8187C174.473 21.0219 172.964 19.8864 170.875 18.7276C166.73 16.4282 160.211 13.9844 151.084 13.9844H27.2695ZM451.317 31.0337C455.655 38.7285 461.468 46.8786 469.904 52.9793C479.639 60.019 493.599 64.8134 514.428 61.5088C490.243 46.071 470.307 36.4663 451.317 31.0337Z" fill="black"/>
<path d="M70.6211 58.7344C70.6211 49.4663 78.1343 41.9531 87.4023 41.9531H239.832C249.1 41.9531 256.613 49.4663 256.613 58.7344V68.5234C256.613 77.7915 249.1 85.3047 239.832 85.3047H87.4023C78.1343 85.3047 70.6211 77.7915 70.6211 68.5234V58.7344Z" fill="#CCCCCC"/>
<path fill-rule="evenodd" clip-rule="evenodd" d="M239.832 55.9375H87.4023C85.8577 55.9375 84.6055 57.1897 84.6055 58.7344V68.5234C84.6055 70.0681 85.8577 71.3203 87.4023 71.3203H239.832C241.377 71.3203 242.629 70.0681 242.629 68.5234V58.7344C242.629 57.1897 241.377 55.9375 239.832 55.9375ZM87.4023 41.9531C78.1343 41.9531 70.6211 49.4663 70.6211 58.7344V68.5234C70.6211 77.7915 78.1343 85.3047 87.4023 85.3047H239.832C249.1 85.3047 256.613 77.7915 256.613 68.5234V58.7344C256.613 49.4663 249.1 41.9531 239.832 41.9531H87.4023Z" fill="black"/>
<path d="M305.559 58.7344C305.559 49.4663 313.072 41.9531 322.34 41.9531H392.262C401.53 41.9531 409.043 49.4663 409.043 58.7344V68.5234C409.043 77.7915 401.53 85.3047 392.262 85.3047H322.34C313.072 85.3047 305.559 77.7915 305.559 68.5234V58.7344Z" fill="#CCCCCC"/>
<path fill-rule="evenodd" clip-rule="evenodd" d="M392.262 55.9375H322.34C320.795 55.9375 319.543 57.1897 319.543 58.7344V68.5234C319.543 70.0681 320.795 71.3203 322.34 71.3203H392.262C393.806 71.3203 395.059 70.0681 395.059 68.5234V58.7344C395.059 57.1897 393.806 55.9375 392.262 55.9375ZM322.34 41.9531C313.072 41.9531 305.559 49.4663 305.559 58.7344V68.5234C305.559 77.7915 313.072 85.3047 322.34 85.3047H392.262C401.53 85.3047 409.043 77.7915 409.043 68.5234V58.7344C409.043 49.4663 401.53 41.9531 392.262 41.9531H322.34Z" fill="black"/>
<path fill-rule="evenodd" clip-rule="evenodd" d="M585.305 140.684C557.67 128.922 517.951 119.871 488.89 120.279L488.841 120.279L20.2773 120.279V106.295L488.743 106.295C520.091 105.866 561.716 115.446 590.781 127.816L585.305 140.684Z" fill="black"/>
</svg>
