<svg width="1196" height="239" viewBox="0 0 1196 239" fill="none" xmlns="http://www.w3.org/2000/svg">
<g clip-path="url(#clip0)">
<path d="M140.063 103.191C131.615 103.191 123.305 105.117 115.765 108.86C114.719 109.383 113.701 110.016 112.738 110.676L15.3804 177.214C-5.53304 191.523 4.59345 224.241 29.9097 224.241C58.473 224.241 87.972 224.269 106.822 224.269H128.726C131.34 229.938 137.063 233.9 143.723 233.9C150.382 233.9 156.106 229.938 158.72 224.269H175.506C178.12 229.938 183.843 233.9 190.503 233.9C197.162 233.9 202.886 229.938 205.5 224.269H212.654H363.589V103.191H140.063Z" fill="#808080"/>
<path fill-rule="evenodd" clip-rule="evenodd" d="M113.932 105.163C122.05 101.133 130.989 99.0635 140.065 99.0635H367.719V228.396H207.945C204.297 234.16 197.867 238.028 190.505 238.028C183.143 238.028 176.713 234.16 173.065 228.396H161.165C157.517 234.16 151.087 238.028 143.725 238.028C136.363 238.028 129.933 234.16 126.285 228.396H106.824C98.3852 228.396 87.8129 228.391 76.1474 228.385L72.0084 228.383C58.707 228.376 44.1924 228.369 29.9119 228.369C0.534248 228.369 -11.2084 190.406 13.0518 173.807L110.406 107.272C110.407 107.271 110.408 107.27 110.409 107.27C111.468 106.544 112.653 105.802 113.921 105.168L113.932 105.163ZM117.609 112.554C116.788 112.965 115.94 113.487 115.074 114.08L17.7134 180.62C17.7128 180.621 17.714 180.62 17.7134 180.62C0.149105 192.64 8.65782 220.114 29.9119 220.114C44.1948 220.114 58.7113 220.121 72.0126 220.127L76.0551 220.13C87.7594 220.136 98.3643 220.141 106.824 220.141H131.37L132.476 222.54C134.447 226.814 138.749 229.772 143.725 229.772C148.701 229.772 153.003 226.814 154.974 222.54L156.08 220.141H178.15L179.256 222.54C181.227 226.814 185.529 229.772 190.505 229.772C195.481 229.772 199.783 226.814 201.754 222.54L202.86 220.141H359.463V107.319H140.065C132.248 107.319 124.569 109.1 117.609 112.554Z" fill="black"/>
<path d="M73.5569 138.964H136.847V182.992H9.55078L73.5569 138.964Z" fill="#CCCCCC"/>
<path fill-rule="evenodd" clip-rule="evenodd" d="M71.2166 135.563C71.9048 135.09 72.7205 134.836 73.5559 134.836H136.847C139.126 134.836 140.974 136.684 140.974 138.964V182.992C140.974 185.272 139.126 187.12 136.847 187.12H9.54983C7.742 187.12 6.14454 185.944 5.60809 184.217C5.07165 182.491 5.72106 180.616 7.21053 179.592L71.2166 135.563ZM74.8385 143.092L22.8336 178.865H132.719V143.092H74.8385Z" fill="black"/>
<path d="M194.002 182.992L363.594 182.992L363.594 138.964L194.002 138.964L194.002 182.992Z" fill="#CCCCCC"/>
<path fill-rule="evenodd" clip-rule="evenodd" d="M367.719 182.992C367.719 185.272 365.871 187.12 363.591 187.12L194 187.12C191.72 187.12 189.872 185.272 189.872 182.992L189.872 138.964C189.872 136.684 191.72 134.836 194 134.836L363.591 134.836C365.871 134.836 367.719 136.684 367.719 138.964L367.719 182.992ZM359.463 178.865L359.463 143.092L198.127 143.092L198.127 178.865L359.463 178.865Z" fill="black"/>
<path d="M1055.94 103.191C1064.38 103.191 1072.69 105.117 1080.23 108.86C1081.28 109.383 1082.3 110.016 1083.26 110.676L1180.59 177.241C1201.5 191.55 1191.38 224.269 1166.06 224.269C1137.5 224.269 1108 224.296 1089.15 224.296H1067.25C1064.63 229.965 1058.91 233.928 1052.25 233.928C1045.59 233.928 1039.87 229.965 1037.25 224.296H1020.47C1017.85 229.965 1012.13 233.928 1005.47 233.928C998.809 233.928 993.086 229.965 990.472 224.296H983.317H832.41V103.219H1055.94V103.191Z" fill="#808080"/>
<path fill-rule="evenodd" clip-rule="evenodd" d="M1051.81 99.091H828.281V228.424H988.027C991.676 234.187 998.105 238.055 1005.47 238.055C1012.83 238.055 1019.26 234.187 1022.91 228.424H1034.81C1038.46 234.187 1044.89 238.055 1052.25 238.055C1059.61 238.055 1066.04 234.187 1069.69 228.424H1089.15C1097.59 228.424 1108.16 228.418 1119.83 228.412L1123.96 228.41C1137.27 228.403 1151.78 228.396 1166.06 228.396C1195.44 228.396 1207.18 190.434 1182.92 173.835L1085.59 107.272C1085.59 107.272 1085.59 107.271 1085.59 107.272C1084.53 106.545 1083.35 105.802 1082.08 105.168L1082.07 105.163C1073.95 101.133 1065.01 99.0635 1055.93 99.0635H1051.81V99.091ZM1057.62 107.346H836.537V220.169H993.112L994.219 222.568C996.189 226.841 1000.49 229.8 1005.47 229.8C1010.44 229.8 1014.75 226.841 1016.72 222.568L1017.82 220.169H1039.89L1041 222.568C1042.97 226.841 1047.27 229.8 1052.25 229.8C1057.22 229.8 1061.53 226.841 1063.5 222.568L1064.6 220.169H1089.15C1097.61 220.169 1108.21 220.163 1119.92 220.157L1123.96 220.155C1137.26 220.148 1151.78 220.141 1166.06 220.141C1187.32 220.141 1195.83 192.667 1178.26 180.648L1080.93 114.08C1080.06 113.487 1079.21 112.965 1078.39 112.554C1071.93 109.348 1064.85 107.583 1057.62 107.346Z" fill="black"/>
<path d="M1122.42 138.964H1059.13V182.992H1186.43L1122.42 138.964Z" fill="#CCCCCC"/>
<path fill-rule="evenodd" clip-rule="evenodd" d="M1055 138.964C1055 136.684 1056.85 134.836 1059.13 134.836H1122.42C1123.25 134.836 1124.07 135.09 1124.76 135.563L1188.76 179.592C1190.25 180.616 1190.9 182.491 1190.37 184.217C1189.83 185.944 1188.23 187.12 1186.42 187.12H1059.13C1056.85 187.12 1055 185.272 1055 182.992V138.964ZM1063.26 143.092V178.865H1173.14L1121.14 143.092H1063.26Z" fill="black"/>
<path d="M1002 138.964H832.41V182.992H1002V138.964Z" fill="#CCCCCC"/>
<path fill-rule="evenodd" clip-rule="evenodd" d="M828.281 138.964C828.281 136.684 830.129 134.836 832.409 134.836H1002C1004.28 134.836 1006.13 136.684 1006.13 138.964V182.992C1006.13 185.272 1004.28 187.12 1002 187.12H832.409C830.129 187.12 828.281 185.272 828.281 182.992V138.964ZM836.537 143.092V178.865H997.873V143.092H836.537Z" fill="black"/>
<path d="M591.411 103.191H376.773V224.269H591.411V103.191Z" fill="#808080"/>
<path fill-rule="evenodd" clip-rule="evenodd" d="M372.645 99.0635H595.538V228.396H372.645V99.0635ZM380.9 107.319V220.141H587.282V107.319H380.9Z" fill="black"/>
<path d="M591.411 138.964H376.773V182.992H591.411V138.964Z" fill="#CCCCCC"/>
<path fill-rule="evenodd" clip-rule="evenodd" d="M372.645 138.964C372.645 136.684 374.493 134.836 376.772 134.836H591.41C593.69 134.836 595.538 136.684 595.538 138.964V182.992C595.538 185.272 593.69 187.12 591.41 187.12H376.772C374.493 187.12 372.645 185.272 372.645 182.992V138.964ZM380.9 143.092V178.865H587.282V143.092H380.9Z" fill="black"/>
<path d="M819.231 103.191H604.594V224.269H819.231V103.191Z" fill="#808080"/>
<path fill-rule="evenodd" clip-rule="evenodd" d="M600.465 99.0635H823.358V228.396H600.465V99.0635ZM608.72 107.319V220.141H815.102V107.319H608.72Z" fill="black"/>
<path d="M819.231 138.964H604.594V182.992H819.231V138.964Z" fill="#CCCCCC"/>
<path fill-rule="evenodd" clip-rule="evenodd" d="M600.465 138.964C600.465 136.684 602.313 134.836 604.592 134.836H819.23C821.51 134.836 823.358 136.684 823.358 138.964V182.992C823.358 185.272 821.51 187.12 819.23 187.12H604.592C602.313 187.12 600.465 185.272 600.465 182.992V138.964ZM608.72 143.092V178.865H815.102V143.092H608.72Z" fill="black"/>
<path fill-rule="evenodd" clip-rule="evenodd" d="M194.801 56.5764L236.076 15.3017L230.238 9.46436L186.045 53.6577C185.271 54.4318 184.836 55.4817 184.836 56.5764C184.836 57.6711 185.271 58.721 186.045 59.4951L233.348 106.798L239.185 100.961L194.801 56.5764Z" fill="black"/>
<path d="M235.91 15.1347C238.949 15.1347 241.413 12.6707 241.413 9.63122C241.413 6.5917 238.949 4.12769 235.91 4.12769C232.87 4.12769 230.406 6.5917 230.406 9.63122C230.406 12.6707 232.87 15.1347 235.91 15.1347Z" fill="#808080"/>
<path fill-rule="evenodd" clip-rule="evenodd" d="M235.91 8.2553C235.151 8.2553 234.535 8.8713 234.535 9.63118C234.535 10.3911 235.151 11.0071 235.91 11.0071C236.67 11.0071 237.286 10.3911 237.286 9.63118C237.286 8.8713 236.67 8.2553 235.91 8.2553ZM226.279 9.63118C226.279 4.31203 230.591 0 235.91 0C241.23 0 245.542 4.31203 245.542 9.63118C245.542 14.9503 241.23 19.2624 235.91 19.2624C230.591 19.2624 226.279 14.9503 226.279 9.63118Z" fill="black"/>
<path fill-rule="evenodd" clip-rule="evenodd" d="M888.246 56.5764L929.521 15.3017L923.684 9.46436L879.49 53.6577C877.878 55.2697 877.878 57.8831 879.49 59.4951L926.793 106.798L932.63 100.961L888.246 56.5764Z" fill="black"/>
<path d="M929.355 15.1347C932.395 15.1347 934.859 12.6707 934.859 9.63122C934.859 6.5917 932.395 4.12769 929.355 4.12769C926.316 4.12769 923.852 6.5917 923.852 9.63122C923.852 12.6707 926.316 15.1347 929.355 15.1347Z" fill="#808080"/>
<path fill-rule="evenodd" clip-rule="evenodd" d="M929.354 8.2553C928.594 8.2553 927.978 8.8713 927.978 9.63118C927.978 10.3911 928.594 11.0071 929.354 11.0071C930.114 11.0071 930.73 10.3911 930.73 9.63118C930.73 8.8713 930.114 8.2553 929.354 8.2553ZM919.723 9.63118C919.723 4.31203 924.035 0 929.354 0C934.673 0 938.985 4.31203 938.985 9.63118C938.985 14.9503 934.673 19.2624 929.354 19.2624C924.035 19.2624 919.723 14.9503 919.723 9.63118Z" fill="black"/>
</g>
<defs>
<clipPath id="clip0">
<rect width="1196" height="238.028" fill="white"/>
</clipPath>
</defs>
</svg>
