<?xml version="1.0" encoding="utf-8"?>
<!-- Generator: Adobe Illustrator 23.0.1, SVG Export Plug-In . SVG Version: 6.00 Build 0)  -->
<svg version="1.1" id="Capa_1" xmlns="http://www.w3.org/2000/svg" xmlns:xlink="http://www.w3.org/1999/xlink" x="0px" y="0px"
	 viewBox="0 0 21.2 21.2" style="enable-background:new 0 0 21.2 21.2;" xml:space="preserve">
<style type="text/css">
	.st0{fill:#05386B;}
</style>
<g>
	<path class="st0" d="M0.7,5.9C1.9,5.8,3,6.5,4.3,6.2c0.2-0.1,1.2,0.6,0.3,1.3C4.2,7.8,4.1,8.2,4,8.7C3.8,9.6,4.5,10.8,3,11.2
		c-0.3,0.1,0,0.3,0.1,0.5c0.3,0.6,0.3,1.2,0.2,1.9c-0.1,0.9-0.2,1.6-0.5,2.3c-0.1,0.3-0.1,0.8,0.3,0.8c1.3,0,1.5,1,2,1.8
		c0.3,0.6,0.9,1.3,1.6,0.6c1-1,2.1-1.6,3.5-1.3c2.3,0.6,3-1.9,4.8-2.3c-0.5-1.4,2.4-2.2,0.7-3.9c-0.4-0.4,0-1,0.3-1.3
		c0.9-1.2,1.3-3,3.2-3.3c0.5-0.1,1-0.8,1.5-1.1c0.5-0.4,0.4-0.9,0.3-1.3c-0.1-0.7-0.6-0.3-1-0.3c-0.8,0-1.6,0.2-2.3-0.5
		c-0.2-0.2-0.7-0.2-1-0.1c-1.2,0.7-2.3-0.1-3.3-0.5C13,2.9,12.6,2.7,12,2.6C10,2.2,8,2.5,5.9,2.3C4.3,2.1,2.7,1.6,1.1,1.7
		C0.1,1.8,0,2.1,0,2.9C0,4,1,4.8,0.7,5.9z"/>
</g>
</svg>
