<?xml version="1.0" encoding="UTF-8" standalone="no"?><!DOCTYPE svg PUBLIC "-//W3C//DTD SVG 1.1//EN" "http://www.w3.org/Graphics/SVG/1.1/DTD/svg11.dtd"><svg width="100%" height="100%" viewBox="0 0 48 48" version="1.1" xmlns="http://www.w3.org/2000/svg" xmlns:xlink="http://www.w3.org/1999/xlink" xml:space="preserve" xmlns:serif="http://www.serif.com/" style="fill-rule:evenodd;clip-rule:evenodd;stroke-linejoin:round;stroke-miterlimit:1.41421;"><g><path d="M24,48c-13.234,0 -24,-10.766 -24,-24c0,-13.234 10.766,-24 24,-24c13.234,0 24,10.766 24,24c0,13.234 -10.766,24 -24,24Zm0,-43.826c-10.932,0 -19.826,8.894 -19.826,19.826c0,10.932 8.894,19.826 19.826,19.826c10.932,0 19.826,-8.894 19.826,-19.826c0,-10.932 -8.894,-19.826 -19.826,-19.826Z" style="fill:#444;fill-rule:nonzero;"/><path id="path6" d="M34.833,24c-1.43,-2.219 -3.221,-3.879 -5.374,-4.979c0.573,0.978 0.86,2.036 0.86,3.174c0,1.739 -0.618,3.227 -1.855,4.464c-1.236,1.236 -2.724,1.855 -4.464,1.855c-1.74,0 -3.228,-0.619 -4.464,-1.855c-1.237,-1.237 -1.855,-2.725 -1.855,-4.464c0,-1.138 0.287,-2.196 0.86,-3.174c-2.153,1.1 -3.944,2.76 -5.374,4.979c1.251,1.928 2.819,3.463 4.704,4.605c1.886,1.143 3.929,1.714 6.129,1.714c2.2,0 4.243,-0.571 6.129,-1.714c1.885,-1.142 3.453,-2.677 4.704,-4.605Zm-10.156,-5.416c0,-0.188 -0.066,-0.348 -0.197,-0.48c-0.132,-0.131 -0.292,-0.197 -0.48,-0.197c-1.175,0 -2.184,0.42 -3.025,1.262c-0.842,0.842 -1.263,1.85 -1.263,3.026c0,0.188 0.066,0.347 0.198,0.479c0.131,0.132 0.291,0.198 0.479,0.198c0.188,0 0.348,-0.066 0.48,-0.198c0.131,-0.132 0.197,-0.291 0.197,-0.479c0,-0.809 0.287,-1.5 0.861,-2.074c0.573,-0.573 1.264,-0.86 2.073,-0.86c0.188,0 0.348,-0.066 0.48,-0.198c0.131,-0.131 0.197,-0.291 0.197,-0.479Zm11.961,5.416c0,0.32 -0.094,0.644 -0.282,0.973c-1.317,2.163 -3.087,3.896 -5.311,5.198c-2.223,1.302 -4.572,1.953 -7.045,1.953c-2.473,0 -4.822,-0.653 -7.045,-1.96c-2.224,-1.307 -3.994,-3.037 -5.311,-5.191c-0.188,-0.329 -0.282,-0.653 -0.282,-0.973c0,-0.32 0.094,-0.644 0.282,-0.973c1.317,-2.154 3.087,-3.884 5.311,-5.191c2.223,-1.307 4.572,-1.96 7.045,-1.96c2.473,0 4.822,0.653 7.045,1.96c2.224,1.307 3.994,3.037 5.311,5.191c0.188,0.329 0.282,0.653 0.282,0.973Z" style="fill:#444;fill-rule:nonzero;"/></g></svg>