<?xml version="1.0" encoding="UTF-8" standalone="no"?><!DOCTYPE svg PUBLIC "-//W3C//DTD SVG 1.1//EN" "http://www.w3.org/Graphics/SVG/1.1/DTD/svg11.dtd"><svg width="100%" height="100%" viewBox="0 0 48 48" version="1.1" xmlns="http://www.w3.org/2000/svg" xmlns:xlink="http://www.w3.org/1999/xlink" xml:space="preserve" xmlns:serif="http://www.serif.com/" style="fill-rule:evenodd;clip-rule:evenodd;stroke-linejoin:round;stroke-miterlimit:1.41421;"><g><path d="M24,48c-13.234,0 -24,-10.766 -24,-24c0,-13.234 10.766,-24 24,-24c13.234,0 24,10.766 24,24c0,13.234 -10.766,24 -24,24Zm0,-43.826c-10.932,0 -19.826,8.894 -19.826,19.826c0,10.932 8.894,19.826 19.826,19.826c10.932,0 19.826,-8.894 19.826,-19.826c0,-10.932 -8.894,-19.826 -19.826,-19.826Z" style="fill:#444;fill-rule:nonzero;"/><path id="path3041" d="M19.19,29.289l1.1,-1.988c-0.818,-0.593 -1.457,-1.34 -1.918,-2.243c-0.461,-0.903 -0.691,-1.857 -0.691,-2.863c0,-1.138 0.287,-2.196 0.86,-3.174c-2.153,1.1 -3.944,2.76 -5.374,4.979c1.571,2.426 3.578,4.189 6.023,5.289Zm5.487,-10.705c0,-0.188 -0.066,-0.348 -0.197,-0.48c-0.132,-0.131 -0.292,-0.197 -0.48,-0.197c-1.175,0 -2.184,0.42 -3.025,1.262c-0.842,0.842 -1.263,1.85 -1.263,3.026c0,0.188 0.066,0.347 0.198,0.479c0.131,0.132 0.291,0.198 0.479,0.198c0.188,0 0.348,-0.066 0.48,-0.198c0.131,-0.132 0.197,-0.291 0.197,-0.479c0,-0.809 0.287,-1.5 0.861,-2.074c0.573,-0.573 1.264,-0.86 2.073,-0.86c0.188,0 0.348,-0.066 0.48,-0.198c0.131,-0.131 0.197,-0.291 0.197,-0.479Zm5.12,-2.694c0,0.066 -0.005,0.108 -0.014,0.127c-0.987,1.767 -2.468,4.429 -4.443,7.983c-1.975,3.554 -3.46,6.22 -4.457,7.997l-0.691,1.256c-0.094,0.15 -0.226,0.225 -0.395,0.225c-0.113,0 -0.743,-0.329 -1.89,-0.987c-0.151,-0.094 -0.226,-0.226 -0.226,-0.395c0,-0.113 0.207,-0.522 0.621,-1.227c-1.345,-0.611 -2.584,-1.425 -3.717,-2.44c-1.133,-1.016 -2.113,-2.168 -2.941,-3.456c-0.188,-0.291 -0.282,-0.616 -0.282,-0.973c0,-0.357 0.094,-0.682 0.282,-0.973c1.439,-2.21 3.225,-3.954 5.36,-5.233c2.135,-1.279 4.467,-1.918 6.996,-1.918c0.837,0 1.683,0.08 2.539,0.239l0.762,-1.368c0.094,-0.15 0.225,-0.225 0.394,-0.225c0.047,0 0.132,0.028 0.254,0.084c0.123,0.057 0.268,0.129 0.438,0.219c0.169,0.089 0.324,0.176 0.465,0.261c0.141,0.084 0.289,0.171 0.444,0.261c0.156,0.089 0.247,0.143 0.275,0.162c0.151,0.094 0.226,0.221 0.226,0.381Zm0.522,6.305c0,1.307 -0.371,2.498 -1.114,3.575c-0.743,1.077 -1.726,1.85 -2.948,2.32l3.949,-7.08c0.075,0.423 0.113,0.818 0.113,1.185Zm6.319,1.805c0,0.329 -0.094,0.654 -0.282,0.973c-0.367,0.602 -0.879,1.284 -1.538,2.045c-1.41,1.618 -3.044,2.873 -4.901,3.766c-1.857,0.894 -3.829,1.34 -5.917,1.34l1.044,-1.861c1.993,-0.17 3.839,-0.814 5.536,-1.933c1.697,-1.119 3.115,-2.562 4.253,-4.33c-1.082,-1.683 -2.408,-3.065 -3.978,-4.147l0.889,-1.58c0.893,0.602 1.751,1.322 2.574,2.158c0.823,0.837 1.502,1.702 2.038,2.596c0.188,0.319 0.282,0.644 0.282,0.973Z" style="fill:#444;fill-rule:nonzero;"/></g></svg>