<?xml version="1.0" encoding="UTF-8" standalone="no"?><!DOCTYPE svg PUBLIC "-//W3C//DTD SVG 1.1//EN" "http://www.w3.org/Graphics/SVG/1.1/DTD/svg11.dtd"><svg width="100%" height="100%" viewBox="0 0 48 48" version="1.1" xmlns="http://www.w3.org/2000/svg" xmlns:xlink="http://www.w3.org/1999/xlink" xml:space="preserve" xmlns:serif="http://www.serif.com/" style="fill-rule:evenodd;clip-rule:evenodd;stroke-linejoin:round;stroke-miterlimit:1.41421;"><path d="M19.2,34.8l14.4,-10.8l-14.4,-10.8l0,21.6Zm4.8,-34.8c-13.26,0 -24,10.74 -24,24c0,13.26 10.74,24 24,24c13.26,0 24,-10.74 24,-24c0,-13.26 -10.74,-24 -24,-24Zm0,43.2c-10.584,0 -19.2,-8.616 -19.2,-19.2c0,-10.584 8.616,-19.2 19.2,-19.2c10.584,0 19.2,8.616 19.2,19.2c0,10.584 -8.616,19.2 -19.2,19.2Z" style="fill:#444;fill-rule:nonzero;"/></svg>