<?xml version="1.0" encoding="UTF-8" standalone="no"?><!DOCTYPE svg PUBLIC "-//W3C//DTD SVG 1.1//EN" "http://www.w3.org/Graphics/SVG/1.1/DTD/svg11.dtd"><svg width="100%" height="100%" viewBox="0 0 48 48" version="1.1" xmlns="http://www.w3.org/2000/svg" xmlns:xlink="http://www.w3.org/1999/xlink" xml:space="preserve" xmlns:serif="http://www.serif.com/" style="fill-rule:evenodd;clip-rule:evenodd;stroke-linejoin:round;stroke-miterlimit:1.41421;"><g><path d="M24,48c-13.234,0 -24,-10.766 -24,-24c0,-13.234 10.766,-24 24,-24c13.234,0 24,10.766 24,24c0,13.234 -10.766,24 -24,24Zm0,-43.826c-10.932,0 -19.826,8.894 -19.826,19.826c0,10.932 8.894,19.826 19.826,19.826c10.932,0 19.826,-8.894 19.826,-19.826c0,-10.932 -8.894,-19.826 -19.826,-19.826Z" style="fill:#444;fill-rule:nonzero;"/><path d="M31.304,33.391l-14.608,0c-1.151,0 -2.087,-0.936 -2.087,-2.087l0,-14.608c0,-1.151 0.936,-2.087 2.087,-2.087l14.608,0c1.151,0 2.087,0.936 2.087,2.087l0,14.608c0,1.151 -0.936,2.087 -2.087,2.087Z" style="fill:#444;fill-rule:nonzero;"/></g></svg>